<?xml version="1.0" encoding="UTF-8" standalone="no"?>
<!DOCTYPE svg PUBLIC "-//W3C//DTD SVG 1.1//EN" "http://www.w3.org/Graphics/SVG/1.1/DTD/svg11.dtd">
<svg width="100%" height="100%" viewBox="0 0 6000 3000" version="1.1" xmlns="http://www.w3.org/2000/svg" xmlns:xlink="http://www.w3.org/1999/xlink" xml:space="preserve" xmlns:serif="http://www.serif.com/" style="fill-rule:evenodd;clip-rule:evenodd;stroke-linecap:round;stroke-linejoin:round;stroke-miterlimit:2;">
    <g>
        <path d="M563.834,2699.73L564.751,2699.98L565.668,2700.23L566.585,2700.48L567.501,2700.72L568.417,2700.97L569.332,2701.21L570.246,2701.45L571.16,2701.7L572.074,2701.93L572.986,2702.17L573.899,2702.41L574.811,2702.64L575.722,2702.88L576.632,2703.11L577.543,2703.34L578.452,2703.57L579.361,2703.8L580.269,2704.03L581.177,2704.25L582.085,2704.48L582.992,2704.7L583.898,2704.92L584.803,2705.14L585.709,2705.36L586.613,2705.58L587.517,2705.79L588.421,2706.01L589.324,2706.22L590.226,2706.43L591.128,2706.64L592.029,2706.85L592.93,2707.06" style="fill:none;stroke:white;stroke-width:20px;"/>
        <path d="M652.214,2717.92L656.422,2718.48L660.618,2719L664.8,2719.5L668.97,2719.96L673.126,2720.4L677.27,2720.8L681.4,2721.17L685.518,2721.52L689.623,2721.83L693.714,2722.11L697.793,2722.37L701.858,2722.59L705.911,2722.79L709.951,2722.95L711.971,2723.02M771.927,2721.79L772.82,2721.73L776.639,2721.41L780.445,2721.07L784.238,2720.71L788.019,2720.31L791.786,2719.89L795.54,2719.45L799.281,2718.97L803.01,2718.47L806.725,2717.95L810.428,2717.39L814.117,2716.82L817.794,2716.21L821.458,2715.58L825.108,2714.93L828.746,2714.25L831.349,2713.74M889.382,2698.65L892.015,2697.78L895.407,2696.64L898.786,2695.48L902.152,2694.29L905.506,2693.08L908.846,2691.85L912.174,2690.6L915.488,2689.32L918.79,2688.02L922.079,2686.7L925.355,2685.36L928.618,2683.99L931.868,2682.6L935.106,2681.2L938.33,2679.77L941.542,2678.32L944.74,2676.84L945.162,2676.64M997.945,2648.18L1000.11,2646.84L1003.07,2644.99L1006.01,2643.12L1008.94,2641.23L1011.85,2639.32L1014.75,2637.39L1017.64,2635.45L1020.52,2633.49L1023.38,2631.5L1026.23,2629.5L1029.07,2627.49L1031.9,2625.45L1034.71,2623.4L1037.51,2621.33L1040.3,2619.24L1043.07,2617.14L1045.83,2615.02L1047.19,2613.96M1092.59,2574.77L1093.34,2574.06L1095.85,2571.64L1098.36,2569.2L1100.85,2566.75L1103.33,2564.28L1105.8,2561.81L1108.25,2559.31L1110.69,2556.8L1113.12,2554.28L1115.53,2551.75L1117.93,2549.2L1120.32,2546.64L1122.7,2544.06L1125.06,2541.47L1127.41,2538.87L1129.75,2536.26L1132.08,2533.63L1134.03,2531.41M1171.52,2484.59L1171.74,2484.29L1173.83,2481.44L1175.9,2478.58L1177.95,2475.71L1180,2472.84L1182.03,2469.95L1184.05,2467.05L1186.05,2464.14L1188.05,2461.22L1190.03,2458.3L1191.99,2455.36L1193.95,2452.41L1195.89,2449.46L1197.82,2446.49L1199.74,2443.52L1201.64,2440.54L1203.53,2437.55L1205.17,2434.93M1235.1,2382.94L1235.39,2382.39L1237.04,2379.26L1238.68,2376.13L1240.3,2372.98L1241.91,2369.83L1243.51,2366.68L1245.09,2363.52L1246.67,2360.35L1248.23,2357.18L1249.78,2354.01L1251.31,2350.83L1252.83,2347.64L1254.34,2344.45L1255.84,2341.25L1257.32,2338.05L1258.79,2334.84L1260.25,2331.63L1261.42,2329.03M1284.22,2273.54L1284.33,2273.24L1285.55,2269.97L1286.76,2266.69L1287.95,2263.42L1289.13,2260.14L1290.29,2256.87L1291.45,2253.59L1292.59,2250.31L1293.72,2247.03L1294.83,2243.74L1295.94,2240.46L1297.03,2237.17L1298.11,2233.89L1299.17,2230.6L1300.23,2227.32L1301.27,2224.03L1302.29,2220.74L1303.31,2217.46L1303.52,2216.74M1319.31,2158.87L1319.41,2158.41L1320.19,2155.15L1320.95,2151.89L1321.7,2148.63L1322.44,2145.37L1323.16,2142.11L1323.87,2138.86L1324.57,2135.61L1325.26,2132.37L1325.93,2129.12L1326.6,2125.88L1327.24,2122.65L1327.88,2119.41L1328.5,2116.19L1329.11,2112.96L1329.71,2109.74L1330.3,2106.52L1330.87,2103.31L1331.43,2100.12M1339.63,2040.69L1339.69,2040.14L1340,2037.05L1340.3,2033.96L1340.58,2030.88L1340.85,2027.8L1341.11,2024.74L1341.35,2021.68L1341.59,2018.63L1341.81,2015.58L1342.02,2012.55L1342.21,2009.52L1342.4,2006.5L1342.57,2003.49L1342.73,2000.49L1342.87,1997.49L1343,1994.5L1343.12,1991.53L1343.23,1988.56L1343.33,1985.6L1343.41,1982.65L1343.45,1980.83M1342.11,1920.87L1342.06,1920.27L1341.86,1917.56L1341.64,1914.86L1341.41,1912.18L1341.17,1909.51L1340.91,1906.85L1340.64,1904.2L1340.36,1901.57L1340.07,1898.94L1339.77,1896.34L1339.45,1893.74L1339.12,1891.16L1338.78,1888.59L1338.42,1886.03L1338.05,1883.49L1337.67,1880.96L1337.28,1878.45L1336.87,1875.94L1336.46,1873.46L1336.03,1870.98L1335.58,1868.53L1335.13,1866.08L1334.66,1863.65L1334.22,1861.43M1317.31,1803.95L1316.51,1802L1315.68,1800.05L1314.84,1798.11L1313.98,1796.19L1313.12,1794.29L1312.24,1792.41L1311.35,1790.55L1310.44,1788.7L1309.53,1786.88L1308.6,1785.07L1307.66,1783.28L1306.7,1781.51L1305.74,1779.76L1304.76,1778.04L1303.77,1776.33L1302.77,1774.64L1301.75,1772.97L1300.72,1771.32L1299.68,1769.69L1298.63,1768.08L1297.57,1766.49L1296.49,1764.92L1295.4,1763.38L1294.3,1761.85L1293.18,1760.34L1292.06,1758.86L1290.92,1757.4L1289.77,1755.95L1288.6,1754.53L1287.42,1753.13L1286.9,1752.53M1238.26,1718.65L1236.82,1718.17L1235.19,1717.65L1233.54,1717.17L1231.88,1716.7L1230.21,1716.27L1228.53,1715.86L1226.83,1715.48L1225.12,1715.12L1223.4,1714.79L1221.67,1714.49L1219.92,1714.22L1218.16,1713.97L1216.39,1713.75L1214.61,1713.56L1212.82,1713.4L1211.01,1713.26L1209.19,1713.15L1207.36,1713.07L1205.52,1713.02L1203.66,1713L1201.79,1713.01L1199.91,1713.04L1198.02,1713.1L1196.11,1713.19L1194.19,1713.31L1192.26,1713.46L1190.32,1713.64L1188.37,1713.85L1186.4,1714.09L1184.42,1714.35L1182.43,1714.65L1180.42,1714.98L1179,1715.23M1123.28,1736.44L1122.12,1737.19L1120.59,1738.21L1119.09,1739.26L1117.6,1740.32L1116.14,1741.4L1114.71,1742.5L1113.29,1743.62L1111.9,1744.75L1110.54,1745.9L1109.19,1747.06L1107.88,1748.25L1106.58,1749.45L1105.31,1750.66L1104.06,1751.9L1102.83,1753.15L1101.63,1754.41L1100.45,1755.7L1099.29,1757L1098.16,1758.31L1097.05,1759.64L1095.96,1760.99L1094.9,1762.35L1093.86,1763.73L1092.84,1765.12L1091.84,1766.53L1090.87,1767.95L1089.92,1769.39L1089,1770.85L1088.09,1772.32L1087.21,1773.8L1086.36,1775.3L1085.52,1776.81L1084.71,1778.34L1083.92,1779.88L1083.63,1780.48M1070.39,1838.51L1070.36,1840.2L1070.34,1842.18L1070.35,1844.18L1070.38,1846.18L1070.43,1848.2L1070.5,1850.23L1070.59,1852.26L1070.71,1854.31L1070.84,1856.36L1071,1858.43L1071.18,1860.51L1071.38,1862.59L1071.6,1864.69L1071.84,1866.79L1072.11,1868.91L1072.39,1871.03L1072.7,1873.16L1073.02,1875.31L1073.37,1877.46L1073.74,1879.62L1074.13,1881.79L1074.54,1883.96L1074.97,1886.15L1075.43,1888.35L1075.9,1890.55L1076.4,1892.76L1076.91,1894.98L1077.45,1897.21L1077.62,1897.89M1097.22,1954.53L1097.53,1955.23L1098.6,1957.63L1099.68,1960.04L1100.79,1962.45L1101.92,1964.87L1103.06,1967.29L1104.23,1969.72L1105.42,1972.15L1106.62,1974.59L1107.85,1977.03L1109.09,1979.47L1110.36,1981.92L1111.64,1984.38L1112.95,1986.83L1114.27,1989.3L1115.61,1991.76L1116.98,1994.23L1118.36,1996.7L1119.76,1999.18L1121.18,2001.66L1122.62,2004.14L1124.08,2006.63L1124.77,2007.79M1157.94,2057.76L1159.17,2059.43L1161.05,2061.97L1162.95,2064.5L1164.86,2067.04L1166.8,2069.57L1168.75,2072.11L1170.72,2074.64L1172.71,2077.18L1174.72,2079.72L1176.75,2082.25L1178.8,2084.79L1180.86,2087.33L1182.94,2089.87L1185.04,2092.4L1187.16,2094.94L1189.3,2097.47L1191.46,2100.01L1193.63,2102.54L1195.41,2104.6M1236.35,2148.43L1238.36,2150.42L1240.89,2152.92L1243.43,2155.42L1246,2157.91L1248.59,2160.4L1251.19,2162.89L1253.81,2165.37L1256.44,2167.85L1259.1,2170.32L1261.77,2172.8L1264.46,2175.27L1267.16,2177.73L1269.89,2180.19L1272.63,2182.65L1275.38,2185.1L1278.16,2187.55L1280.22,2189.35M1326.6,2227.4L1327.92,2228.42L1331,2230.78L1334.1,2233.13L1337.21,2235.47L1340.34,2237.8L1343.48,2240.13L1346.64,2242.45L1349.82,2244.77L1353.01,2247.08L1356.22,2249.38L1359.45,2251.67L1362.69,2253.96L1365.95,2256.24L1369.23,2258.51L1372.52,2260.78L1375.18,2262.6M1425.72,2294.93L1427.35,2295.91L1430.92,2298.03L1434.49,2300.14L1438.09,2302.25L1441.69,2304.34L1445.32,2306.42L1448.96,2308.5L1452.62,2310.56L1456.29,2312.61L1459.97,2314.66L1463.67,2316.69L1467.39,2318.71L1471.12,2320.73L1474.87,2322.73L1477.99,2324.38M1531.79,2350.91L1532.9,2351.42L1536.89,2353.24L1540.89,2355.05L1544.91,2356.85L1548.94,2358.63L1552.99,2360.4L1557.05,2362.15L1561.13,2363.9L1565.22,2365.63L1569.32,2367.35L1573.44,2369.05L1577.58,2370.74L1581.73,2372.42L1585.89,2374.09L1586.95,2374.51M1643.29,2395.12L1645.68,2395.92L1650.05,2397.37L1654.44,2398.81L1658.85,2400.23L1663.27,2401.63L1667.7,2403.02L1672.14,2404.4L1676.6,2405.76L1681.08,2407.1L1685.56,2408.42L1690.06,2409.74L1694.58,2411.03L1699.11,2412.31L1700.64,2412.73M1758.83,2427.32L1759.19,2427.41L1763.91,2428.45L1768.64,2429.47L1773.38,2430.47L1778.14,2431.46L1782.9,2432.43L1787.68,2433.38L1792.48,2434.32L1797.29,2435.23L1802.11,2436.12L1806.94,2437L1811.79,2437.86L1816.64,2438.7L1817.7,2438.88M1877.08,2447.41L1880.96,2447.86L1886,2448.43L1891.05,2448.97L1896.11,2449.5L1901.18,2450L1906.26,2450.49L1911.36,2450.95L1916.47,2451.39L1921.59,2451.81L1926.73,2452.21L1931.87,2452.59L1936.82,2452.93M1996.76,2455.48L1999.86,2455.54L2005.17,2455.61L2010.5,2455.66L2015.83,2455.68L2021.18,2455.69L2026.54,2455.66L2031.91,2455.62L2037.29,2455.55L2042.68,2455.46L2048.09,2455.35L2053.51,2455.21L2056.76,2455.12M2116.66,2451.89L2119.39,2451.68L2124.95,2451.23L2130.53,2450.75L2136.11,2450.24L2141.7,2449.72L2147.31,2449.16L2152.93,2448.58L2158.56,2447.97L2164.2,2447.34L2169.85,2446.68L2175.51,2446L2176.36,2445.89M2235.72,2437.21L2238.47,2436.74L2244.26,2435.74L2250.06,2434.71L2255.86,2433.66L2261.68,2432.57L2267.51,2431.46L2273.35,2430.32L2279.2,2429.15L2285.06,2427.96L2290.93,2426.73L2294.65,2425.94M2353.05,2412.19L2356.14,2411.4L2362.13,2409.83L2368.13,2408.23L2374.14,2406.61L2380.16,2404.95L2386.18,2403.26L2392.22,2401.55L2398.27,2399.8L2404.32,2398.03L2410.39,2396.22L2410.84,2396.09M2467.96,2377.73L2471.56,2376.49L2477.72,2374.35L2483.9,2372.17L2490.09,2369.97L2496.28,2367.73L2502.49,2365.46L2508.7,2363.16L2512.95,2361.56L2517.2,2359.91L2521.46,2358.23L2524.29,2357.09M2578.75,2331.95L2581.2,2330.68L2585.48,2328.43L2589.76,2326.15L2594.03,2323.83L2598.31,2321.47L2602.59,2319.08L2606.87,2316.65L2611.15,2314.19L2615.43,2311.69L2619.71,2309.16L2623.99,2306.59L2628.28,2303.98L2630.92,2302.35M2680.9,2269.17L2683.89,2267.05L2688.16,2263.97L2692.43,2260.87L2696.7,2257.73L2700.96,2254.57L2705.23,2251.36L2709.49,2248.13L2713.75,2244.87L2718.01,2241.57L2722.27,2238.25L2726.53,2234.89L2728.82,2233.07M2774.81,2194.56L2777.41,2192.28L2781.63,2188.54L2785.85,2184.77L2790.06,2180.97L2794.27,2177.14L2798.48,2173.29L2802.68,2169.41L2806.89,2165.5L2811.08,2161.56L2815.28,2157.6L2819.04,2154.01M2861.61,2111.74L2865.25,2107.99L2869.38,2103.69L2873.51,2099.36L2877.64,2095.01L2881.75,2090.64L2885.87,2086.24L2889.97,2081.82L2894.07,2077.37L2898.17,2072.9L2902.26,2068.41L2902.65,2067.97M2942.24,2022.9L2942.82,2022.22L2946.85,2017.48L2950.86,2012.71L2954.87,2007.93L2958.87,2003.12L2962.86,1998.3L2966.84,1993.45L2970.82,1988.59L2974.79,1983.7L2978.76,1978.79L2980.47,1976.65M3017.41,1929.37L3017.96,1928.64L3021.84,1923.53L3025.71,1918.39L3029.57,1913.24L3033.42,1908.06L3037.26,1902.87L3041.09,1897.67L3044.91,1892.44L3048.73,1887.2L3052.53,1881.94L3053.1,1881.15M3087.6,1832.06L3090.06,1828.47L3093.76,1823.03L3097.45,1817.58L3101.13,1812.12L3104.8,1806.64L3108.45,1801.15L3112.1,1795.65L3115.74,1790.13L3119.36,1784.6L3120.94,1782.17M3153.14,1731.55L3155.01,1728.54L3158.51,1722.87L3162,1717.18L3165.48,1711.49L3168.95,1705.78L3172.4,1700.06L3175.84,1694.33L3179.27,1688.59L3182.69,1682.84L3184.23,1680.23M3214.2,1628.26L3216.17,1624.77L3219.44,1618.91L3222.7,1613.05L3225.95,1607.17L3229.19,1601.29L3232.41,1595.4L3235.62,1589.5L3238.81,1583.59L3241.99,1577.68L3243.07,1575.66M3270.83,1522.47L3273.01,1518.16L3276.03,1512.17L3279.04,1506.18L3282.03,1500.19L3285.01,1494.19L3287.97,1488.18L3290.91,1482.17L3293.85,1476.15L3296.76,1470.13L3297.45,1468.7M3322.92,1414.37L3325.03,1409.73L3327.77,1403.67L3330.49,1397.61L3333.2,1391.55L3335.89,1385.49L3338.56,1379.42L3341.21,1373.36L3343.85,1367.29L3346.47,1361.22L3347.2,1359.51M3370.25,1304.12L3371.71,1300.49L3374.14,1294.41L3376.55,1288.34L3378.94,1282.27L3381.31,1276.2L3383.66,1270.13L3386,1264.07L3388.31,1258L3390.61,1251.94L3392.01,1248.2M3412.42,1191.78L3412.53,1191.45L3414.62,1185.41L3416.69,1179.39L3418.73,1173.36L3420.76,1167.35L3422.76,1161.33L3424.75,1155.32L3426.72,1149.32L3428.66,1143.31L3430.59,1137.32L3431.37,1134.85M3448.77,1077.43L3450.39,1071.76L3452.07,1065.84L3453.72,1059.93L3455.35,1054.02L3456.96,1048.13L3458.54,1042.24L3460.11,1036.36L3461.65,1030.48L3463.17,1024.62L3464.47,1019.53M3478.33,961.151L3478.42,960.715L3479.67,954.965L3480.9,949.226L3482.1,943.498L3483.28,937.781L3484.43,932.075L3485.57,926.381L3486.68,920.698L3487.76,915.027L3488.82,909.368L3489.86,903.72L3490.11,902.323M3499.57,843.078L3499.66,842.449L3500.4,836.961L3501.12,831.486L3501.82,826.027L3502.48,820.582L3503.12,815.152L3503.74,809.737L3504.33,804.337L3504.9,798.952L3505.44,793.583L3505.95,788.23L3506.39,783.472M3510.13,723.597L3510.25,720.15L3510.39,715.035L3510.51,709.939L3510.6,704.861L3510.66,699.802L3510.7,694.762L3510.7,689.741L3510.68,684.739L3510.63,679.756L3510.56,674.793L3510.45,669.85L3510.32,664.927L3510.28,663.608M3506.14,603.767L3506.03,602.813L3505.5,598.186L3504.94,593.582L3504.35,589.001L3503.73,584.442L3503.09,579.907L3502.41,575.395L3501.7,570.906L3500.96,566.441L3500.19,561.999L3499.39,557.581L3498.57,553.188L3497.71,548.818L3496.83,544.516M3481.26,486.607L3481.16,486.306L3479.81,482.348L3478.43,478.418L3477.01,474.514L3475.56,470.639L3474.08,466.791L3472.57,462.971L3471.03,459.179L3469.45,455.415L3467.85,451.68L3466.21,447.973L3464.53,444.295L3462.83,440.646L3461.09,437.026L3459.32,433.435L3458.22,431.265M3426.65,380.336L3426.48,380.109L3424.14,377.043L3421.76,374.009L3419.36,371.008L3416.91,368.039L3414.43,365.104L3411.92,362.201L3409.38,359.332L3406.8,356.496L3404.18,353.694L3401.53,350.926L3398.84,348.191L3396.12,345.491L3393.36,342.825L3390.57,340.194L3387.74,337.597L3386.16,336.185M3337.71,300.969L3337.6,300.906L3334.16,298.925L3330.68,296.982L3327.16,295.077L3323.6,293.21L3320.01,291.382L3316.38,289.592L3312.71,287.84L3309.01,286.128L3305.27,284.454L3301.49,282.82L3297.67,281.225L3293.81,279.669L3289.92,278.153L3285.98,276.677L3283.37,275.731M3225.52,260.04L3222.37,259.442L3217.81,258.628L3213.22,257.856L3208.59,257.128L3203.91,256.443L3199.2,255.801L3194.45,255.202L3189.65,254.648L3184.82,254.137L3179.95,253.67L3175.03,253.247L3170.08,252.869L3166.02,252.598M3106.05,251.912L3101.96,252.072L3096.43,252.334L3090.86,252.642L3087.95,252.825L3085.06,253.026L3082.18,253.247L3079.32,253.486L3076.46,253.745L3073.62,254.021L3070.79,254.317L3067.97,254.631L3065.17,254.963L3062.38,255.314L3059.6,255.683L3056.84,256.07L3054.08,256.476L3051.34,256.899L3048.62,257.34L3046.38,257.718M2988.33,272.594L2986.86,273.106L2984.43,273.97L2982.03,274.849L2979.63,275.744L2977.24,276.655L2974.87,277.581L2972.51,278.523L2970.16,279.48L2967.82,280.453L2965.49,281.44L2963.18,282.443L2960.88,283.461L2958.59,284.494L2956.31,285.542L2954.04,286.605L2951.78,287.682L2949.54,288.774L2947.31,289.881L2945.09,291.002L2942.88,292.138L2940.68,293.288L2938.49,294.452L2936.32,295.63L2934.15,296.823L2933.64,297.108M2884.04,330.736L2883.75,330.971L2881.88,332.501L2880.02,334.042L2878.17,335.596L2876.33,337.161L2874.5,338.738L2872.69,340.326L2870.88,341.926L2869.08,343.537L2867.3,345.159L2865.52,346.793L2863.76,348.438L2862.01,350.093L2860.26,351.76L2858.53,353.438L2856.81,355.126L2855.1,356.825L2853.4,358.535L2851.71,360.255L2850.03,361.986L2848.37,363.727L2846.71,365.479L2845.06,367.24L2843.43,369.012L2841.8,370.794L2840.64,372.075M2803.79,419.362L2803.1,420.381L2801.74,422.403L2800.4,424.433L2799.07,426.471L2797.74,428.516L2796.43,430.569L2795.13,432.629L2793.83,434.696L2792.55,436.771L2791.27,438.853L2790,440.942L2788.75,443.038L2787.5,445.141L2786.26,447.251L2785.04,449.367L2783.82,451.49L2782.61,453.62L2781.41,455.756L2780.22,457.899L2779.04,460.048L2777.87,462.203L2776.71,464.365L2775.56,466.532L2774.41,468.706L2773.28,470.886L2773.24,470.963M2748.49,525.591L2747.91,527.064L2747.01,529.369L2746.12,531.678L2745.24,533.99L2744.36,536.306L2743.5,538.626L2742.64,540.948L2741.8,543.275L2740.96,545.604L2740.13,547.936L2739.31,550.272L2738.49,552.61L2737.69,554.952L2736.89,557.296L2736.11,559.643L2735.33,561.993L2734.56,564.345L2733.79,566.699L2733.04,569.056L2732.3,571.416L2731.56,573.777L2730.83,576.141L2730.11,578.507L2729.4,580.875L2728.97,582.307M2714.21,640.448L2714.21,640.474L2713.7,642.865L2713.2,645.255L2712.71,647.645L2712.23,650.035L2711.76,652.424L2711.29,654.812L2710.83,657.2L2710.38,659.588L2709.93,661.974L2709.49,664.359L2709.06,666.744L2708.64,669.127L2708.23,671.51L2707.82,673.89L2707.42,676.27L2707.03,678.649L2706.64,681.026L2706.26,683.401L2705.89,685.775L2705.53,688.147L2705.17,690.517L2704.82,692.885L2704.48,695.252L2704.14,697.616L2703.88,699.538M2697.81,759.217L2697.73,760.378L2697.59,762.651L2697.45,764.921L2697.32,767.185L2697.2,769.445L2697.08,771.701L2696.97,773.951L2696.86,776.197L2696.77,778.438L2696.67,780.674L2696.59,782.904L2696.51,785.13L2696.44,787.35L2696.37,789.565L2696.31,791.775L2696.26,793.979L2696.21,796.177L2696.17,798.37L2696.13,800.557L2696.1,802.738L2696.08,804.913L2696.07,807.083L2696.05,809.246L2696.05,811.403L2696.05,813.554L2696.06,815.698L2696.07,817.836L2696.08,819.178M2699.2,879.078L2699.34,880.488L2699.53,882.377L2699.73,884.258L2699.94,886.129L2700.15,887.991L2700.36,889.843L2700.58,891.686L2700.81,893.52L2701.04,895.344L2701.27,897.158L2701.51,898.962L2701.76,900.757L2702.01,902.541L2702.26,904.316L2702.52,906.08L2702.79,907.835L2703.06,909.579L2703.33,911.312L2703.61,913.036L2703.9,914.748L2704.19,916.45L2704.48,918.142L2704.78,919.822L2705.09,921.492L2705.4,923.151L2705.71,924.799L2706.03,926.435L2706.35,928.061L2706.68,929.675L2707.01,931.278L2707.35,932.869L2707.69,934.449L2708.04,936.017L2708.39,937.574L2708.56,938.303M2728.79,994.569L2729.12,995.134L2729.66,996.049L2730.2,996.948L2730.75,997.832L2731.31,998.7L2731.86,999.552L2732.42,1000.39L2732.98,1001.21L2733.55,1002.01L2734.12,1002.8L2734.69,1003.57L2735.27,1004.33L2735.85,1005.06L2736.43,1005.79L2737.01,1006.49L2737.6,1007.18L2738.19,1007.85L2738.79,1008.51L2739.39,1009.15L2739.99,1009.77L2740.59,1010.37L2741.2,1010.96L2741.81,1011.53L2742.43,1012.08L2743.04,1012.61L2743.66,1013.13L2744.29,1013.63L2744.91,1014.11L2745.54,1014.58L2746.17,1015.02L2746.81,1015.45L2747.45,1015.86L2748.09,1016.25L2748.73,1016.63L2749.38,1016.98L2750.02,1017.32L2750.68,1017.64L2751.33,1017.94L2751.99,1018.22L2752.65,1018.49L2753.31,1018.73L2753.97,1018.96L2754.64,1019.16L2755.31,1019.35L2755.99,1019.52L2756.66,1019.67L2757.34,1019.8L2758.02,1019.91L2758.7,1020L2759.39,1020.07L2760.08,1020.13L2760.77,1020.16L2761.46,1020.17L2762.16,1020.17L2762.85,1020.14L2763.55,1020.09L2764.26,1020.02L2764.96,1019.94L2765.67,1019.83L2766.38,1019.7L2767.09,1019.56L2767.8,1019.39L2768.52,1019.2L2769.23,1018.99L2769.95,1018.76L2770.68,1018.51L2771.4,1018.24L2772.13,1017.94L2772.86,1017.63L2773.59,1017.29L2774.32,1016.94L2775.05,1016.56L2775.79,1016.16L2776.53,1015.74L2777.1,1015.4M2790.2,961.963L2789.95,961.151L2789.56,959.969L2789.15,958.778L2788.72,957.58L2788.28,956.373L2787.82,955.158L2787.35,953.936L2786.85,952.706L2786.34,951.468L2785.82,950.222L2785.27,948.969L2784.72,947.709L2784.14,946.441L2783.55,945.166L2782.94,943.884L2782.31,942.594L2781.67,941.298L2781.01,939.995L2780.34,938.685L2779.65,937.368L2778.94,936.045L2778.22,934.715L2777.48,933.378L2776.73,932.035L2775.96,930.686L2775.17,929.33L2774.37,927.969L2773.56,926.601L2772.73,925.228L2771.88,923.848L2771.02,922.463L2770.14,921.072L2769.25,919.675L2768.34,918.273L2767.41,916.865L2766.48,915.452L2765.52,914.034L2764.55,912.61L2763.57,911.182L2762.57,909.748L2762.17,909.169M2724.2,862.764L2723.24,861.727L2721.8,860.175L2720.33,858.622L2718.86,857.066L2717.38,855.508L2715.88,853.949L2714.37,852.387L2712.84,850.824L2711.31,849.26L2709.76,847.693L2708.2,846.126L2706.63,844.557L2705.05,842.987L2703.45,841.415L2701.85,839.843L2700.23,838.269L2698.6,836.695L2696.96,835.12L2695.31,833.544L2693.64,831.967L2691.97,830.39L2690.28,828.812L2688.58,827.234L2686.87,825.656L2685.15,824.077L2683.42,822.498L2681.68,820.92L2681.44,820.705M2635.43,782.215L2634.74,781.678L2632.74,780.128L2630.72,778.58L2628.7,777.034L2626.67,775.49L2624.62,773.95L2622.57,772.411L2620.51,770.876L2618.45,769.343L2616.37,767.813L2614.28,766.286L2612.19,764.762L2610.09,763.241L2607.97,761.723L2605.86,760.209L2603.73,758.697L2601.59,757.19L2599.45,755.686L2597.29,754.185L2595.13,752.688L2592.96,751.195L2590.79,749.706L2588.6,748.221L2586.84,747.033M2536.01,715.178L2533.96,713.989L2531.6,712.631L2529.23,711.279L2526.86,709.933L2524.47,708.594L2522.09,707.261L2519.7,705.934L2517.3,704.615L2514.89,703.302L2512.49,701.995L2510.07,700.696L2507.65,699.403L2505.22,698.118L2502.79,696.84L2500.35,695.569L2497.91,694.305L2495.46,693.048L2493.01,691.8L2490.55,690.558L2488.09,689.325L2485.62,688.099L2483.15,686.88L2483.12,686.869M2428.3,662.515L2427.6,662.233L2425.03,661.219L2422.45,660.214L2419.88,659.219L2417.3,658.234L2414.72,657.26L2412.13,656.295L2409.54,655.341L2406.95,654.397L2404.35,653.464L2401.75,652.541L2399.15,651.629L2396.55,650.728L2393.94,649.838L2391.33,648.958L2388.72,648.089L2386.11,647.232L2383.49,646.385L2380.87,645.55L2378.25,644.726L2375.62,643.914L2373,643.113L2371.68,642.719M2313.46,628.318L2312.15,628.064L2309.49,627.565L2306.83,627.079L2304.17,626.608L2301.51,626.15L2298.85,625.706L2296.19,625.275L2293.53,624.859L2290.87,624.458L2288.21,624.07L2285.55,623.697L2282.89,623.338L2280.22,622.994L2277.56,622.664L2274.9,622.349L2272.24,622.048L2269.58,621.763L2266.92,621.492L2264.26,621.237L2261.61,620.996L2258.95,620.771L2256.29,620.561L2254.03,620.395M2194.08,620.243L2192.9,620.325L2190.28,620.525L2187.67,620.742L2185.05,620.976L2182.44,621.229L2179.83,621.499L2177.23,621.787L2174.62,622.093L2172.02,622.416L2169.43,622.758L2166.83,623.119L2164.24,623.497L2161.65,623.894L2159.07,624.309L2156.48,624.743L2153.91,625.195L2151.33,625.666L2148.76,626.156L2146.19,626.665L2143.62,627.192L2141.06,627.739L2138.5,628.305L2135.95,628.89L2134.81,629.16M2077.94,648.032L2075.92,648.917L2073.48,650.011L2071.04,651.125L2068.61,652.261L2066.19,653.419L2063.77,654.598L2061.36,655.8L2058.95,657.023L2056.55,658.268L2054.15,659.535L2051.76,660.824L2049.38,662.136L2047,663.469L2044.62,664.825L2042.26,666.204L2039.9,667.605L2037.55,669.029L2035.2,670.475L2032.86,671.944L2030.53,673.437L2028.2,674.952L2025.88,676.49L2025.39,676.82M1978.69,714.374L1976.63,716.34L1974.48,718.432L1972.34,720.55L1970.21,722.692L1968.08,724.86L1965.97,727.054L1963.86,729.273L1961.76,731.517L1959.67,733.787L1957.58,736.083L1955.51,738.404L1953.44,740.752L1951.39,743.125L1949.34,745.525L1947.3,747.95L1945.27,750.402L1943.25,752.88L1941.24,755.385L1939.24,757.916L1938.51,758.859M1904.7,808.38L1903.05,811.154L1901.24,814.233L1899.45,817.34L1897.67,820.476L1895.9,823.64L1894.14,826.832L1892.39,830.054L1890.65,833.304L1888.92,836.582L1887.2,839.89L1885.5,843.226L1883.81,846.592L1882.12,849.987L1880.45,853.411L1878.79,856.865L1876.83,861.043L1876.66,861.399M1856.02,917.665L1855.35,920.115L1854.24,924.369L1853.18,928.628L1852.19,932.89L1851.24,937.156L1850.35,941.426L1849.52,945.699L1848.74,949.975L1848.02,954.254L1847.35,958.536L1846.73,962.821L1846.17,967.109L1845.67,971.399L1845.22,975.692L1845.13,976.592M1844.54,1036.52L1844.83,1040.28L1845.23,1044.59L1845.67,1048.9L1846.17,1053.22L1846.72,1057.53L1847.32,1061.84L1847.97,1066.15L1848.67,1070.46L1849.43,1074.77L1850.23,1079.08L1851.09,1083.39L1851.99,1087.69L1852.94,1092L1853.82,1095.73M1871.84,1152.9L1873.2,1156.33L1874.94,1160.59L1876.72,1164.85L1878.56,1169.11L1880.44,1173.36L1882.37,1177.61L1884.35,1181.86L1886.37,1186.1L1888.44,1190.34L1890.56,1194.57L1892.72,1198.79L1894.93,1203.02L1897.19,1207.23L1897.2,1207.25M1928.52,1258.38L1930.68,1261.52L1933.57,1265.65L1936.51,1269.78L1939.49,1273.89L1942.51,1278L1945.58,1282.1L1948.69,1286.2L1951.84,1290.28L1955.04,1294.36L1958.28,1298.43L1961.56,1302.49L1964.66,1306.26M2004.68,1350.94L2008.1,1354.47L2011.97,1358.4L2015.88,1362.32L2019.84,1366.23L2023.83,1370.13L2027.87,1374.02L2031.94,1377.89L2036.05,1381.76L2040.21,1385.61L2044.4,1389.46L2047.86,1392.58M2093.64,1431.35L2097.8,1434.64L2102.5,1438.33L2107.24,1442L2112.01,1445.65L2116.82,1449.3L2121.68,1452.93L2126.56,1456.54L2131.49,1460.14L2136.45,1463.73L2141.45,1467.3L2141.59,1467.4M2191.37,1500.89L2193.44,1502.22L2198.84,1505.63L2204.26,1509.02L2209.73,1512.39L2215.23,1515.75L2220.77,1519.09L2226.34,1522.42L2231.94,1525.73L2237.58,1529.02L2242.69,1531.97M2295.33,1560.74L2295.82,1560.99L2301.83,1564.09L2307.87,1567.17L2313.94,1570.23L2320.04,1573.28L2326.18,1576.3L2332.35,1579.31L2338.55,1582.29L2344.78,1585.26L2349.13,1587.31M2403.91,1611.77L2408.8,1613.84L2415.38,1616.58L2421.98,1619.31L2428.61,1622.01L2435.27,1624.69L2441.96,1627.35L2448.68,1629.99L2455.43,1632.61L2459.56,1634.19M2515.96,1654.66L2517.46,1655.17L2524.49,1657.57L2531.55,1659.94L2538.64,1662.29L2545.76,1664.61L2552.9,1666.91L2560.08,1669.19L2567.27,1671.44L2573.01,1673.21M2630.64,1689.91L2633.24,1690.62L2640.7,1692.62L2648.19,1694.61L2655.7,1696.56L2663.23,1698.49L2670.79,1700.39L2678.38,1702.27L2685.99,1704.12L2688.76,1704.79M2747.31,1717.89L2747.74,1717.98L2755.57,1719.6L2763.41,1721.18L2771.29,1722.73L2779.18,1724.26L2787.1,1725.76L2795.04,1727.23L2803,1728.68L2806.23,1729.25M2865.44,1738.89L2867.5,1739.2L2875.66,1740.38L2883.84,1741.54L2892.04,1742.66L2900.26,1743.76L2908.51,1744.82L2916.77,1745.86L2924.91,1746.84M2984.58,1753.12L2992.04,1753.79L3000.5,1754.52L3008.98,1755.21L3017.48,1755.88L3026,1756.51L3034.53,1757.11L3043.09,1757.67L3044.4,1757.75M3104.32,1760.75L3112.17,1761.03L3120.88,1761.3L3129.61,1761.53L3138.36,1761.74L3147.12,1761.9L3155.9,1762.04L3164.31,1762.14M3224.3,1761.92L3226.72,1761.88L3235.64,1761.7L3244.57,1761.49L3253.53,1761.24L3262.49,1760.96L3271.47,1760.64L3280.47,1760.28L3284.28,1760.12M3344.18,1756.75L3352.94,1756.12L3362.06,1755.44L3371.19,1754.72L3380.34,1753.95L3389.5,1753.16L3398.67,1752.32L3403.97,1751.82M3463.62,1745.35L3472.48,1744.26L3481.76,1743.08L3491.05,1741.85L3500.35,1740.59L3509.66,1739.29L3518.98,1737.95L3523.08,1737.35M3582.32,1727.84L3584.53,1727.46L3593.93,1725.8L3603.34,1724.09L3612.77,1722.35L3622.2,1720.57L3631.64,1718.74L3641.09,1716.87L3641.3,1716.83M3699.99,1704.34L3707.47,1702.64L3716.99,1700.43L3726.51,1698.19L3736.04,1695.9L3745.58,1693.57L3755.12,1691.19L3758.34,1690.38M3816.33,1674.98L3822.12,1673.36L3831.72,1670.63L3841.33,1667.87L3850.93,1665.06L3860.55,1662.2L3870.17,1659.3L3873.92,1658.15M3931.08,1639.91L3937.65,1637.72L3947.31,1634.46L3956.97,1631.15L3966.64,1627.79L3976.31,1624.39L3985.98,1620.94L3987.78,1620.29M4043.99,1599.3L4044.1,1599.26L4053.79,1595.48L4063.49,1591.66L4073.19,1587.79L4082.9,1583.87L4092.6,1579.9L4099.67,1576.97M4154.81,1553.32L4160.59,1550.76L4170.31,1546.4L4180.03,1542L4189.75,1537.54L4199.47,1533.04L4209.19,1528.48L4209.39,1528.39M4263.36,1502.18L4267.51,1500.11L4277.23,1495.2L4286.95,1490.25L4296.67,1485.24L4306.38,1480.18L4316.1,1475.07L4316.72,1474.74M4369.43,1446.09L4374.36,1443.34L4384.06,1437.87L4393.77,1432.34L4403.46,1426.77L4413.16,1421.14L4421.49,1416.26M4472.87,1385.28L4480.95,1380.26L4490.62,1374.21L4500.29,1368.1L4509.95,1361.94L4519.61,1355.73L4523.55,1353.17M4573.53,1319.97L4577.46,1317.3L4587.09,1310.7L4596.71,1304.05L4606.32,1297.34L4615.93,1290.58L4622.79,1285.71M4671.31,1250.42L4673.46,1248.83L4683.03,1241.67L4692.59,1234.46L4702.14,1227.19L4711.68,1219.87L4719.09,1214.14M4766.12,1176.88L4768.8,1174.72L4778.29,1167L4787.77,1159.21L4797.25,1151.37L4806.72,1143.47L4812.4,1138.69M4857.91,1099.59L4863.33,1094.84L4872.74,1086.52L4882.13,1078.15L4891.51,1069.72L4900.89,1061.23L4902.65,1059.62M4946.63,1018.8L4947.61,1017.88L4956.92,1009.03L4966.22,1000.12L4975.51,991.147L4984.79,982.114L4989.83,977.167M5032.27,934.75L5040.22,926.631L5049.41,917.168L5058.6,907.643L5067.77,898.056L5073.93,891.572M5114.82,847.669L5122.53,839.224L5131.61,829.199" style="fill:white;stroke:white;stroke-width:20px;"/>
        <path d="M5425.74,484.89C5460,443.636 5508.24,427.299 5533.61,448.364" style="fill:none;stroke:black;stroke-width:13.6px;stroke-linejoin:miter;"/>
        <path d="M5398.33,462.128C5432.58,420.875 5439.77,370.447 5414.4,349.383" style="fill:none;stroke:black;stroke-width:13.6px;stroke-linejoin:miter;"/>
        <path d="M5405.04,341.616C5408.39,337.58 5414.38,337.025 5418.42,340.375C5422.45,343.726 5423.01,349.713 5419.66,353.748C5416.31,357.784 5410.32,358.339 5406.28,354.988C5402.25,351.638 5401.69,345.651 5405.04,341.616Z" style="fill:none;stroke:black;stroke-width:13.6px;stroke-linejoin:miter;"/>
        <path d="M5526.31,442.297C5529.66,438.262 5535.64,437.707 5539.68,441.057C5543.71,444.408 5544.27,450.395 5540.92,454.43C5537.57,458.465 5531.58,459.021 5527.55,455.67C5523.51,452.32 5522.96,446.332 5526.31,442.297Z" style="fill:none;stroke:black;stroke-width:13.6px;stroke-linejoin:miter;"/>
        <path d="M5340.8,767.87C5226.61,905.401 5127.92,842.937 5099,860.544C5108.79,827.055 5027.4,743.532 5145.63,605.823C5226.85,511.222 5291.31,519.269 5345.2,564.016C5399.09,608.764 5420.45,671.939 5340.8,767.87Z" style="fill:rgb(255,200,0);fill-rule:nonzero;"/>
        <path d="M5340.8,767.87C5226.61,905.401 5127.92,842.937 5099,860.544C5108.79,827.055 5027.4,743.532 5145.63,605.823C5226.85,511.222 5291.31,519.269 5345.2,564.016C5399.09,608.764 5420.45,671.939 5340.8,767.87Z" style="fill:none;stroke:black;stroke-width:11.17px;stroke-linecap:butt;stroke-linejoin:miter;"/>
        <path d="M5293.62,619.757C5260.57,590.75 5239.22,560.671 5229.86,539.383C5209.79,547.225 5188.52,561.574 5165.89,583.99C5182.38,615.235 5209.12,648.119 5242.79,677.672C5245.54,680.084 5248.32,682.453 5251.12,684.776C5273.15,703.071 5296.6,718.527 5319.47,729.782C5332.66,736.275 5345.61,741.382 5358.26,745.106C5376.69,718.852 5387.12,695.246 5391.22,673.938C5362.34,668.525 5327.08,649.126 5293.62,619.757Z" style="fill-rule:nonzero;"/>
        <path d="M5213.25,714.786C5173.74,680.112 5147.93,644.612 5135.62,617.955C5113.57,645.774 5099.68,671.278 5091.4,694.507C5109.96,721.081 5134.1,747.85 5162.42,772.701C5165.68,775.562 5168.97,778.371 5172.29,781.126C5198.36,802.77 5226.07,821.042 5253.07,834.33C5255.27,835.414 5257.47,836.464 5259.66,837.482C5281.81,825.533 5305.29,807.562 5329.57,780.802C5294.33,772.774 5252.64,749.345 5213.25,714.786Z" style="fill-rule:nonzero;"/>
        <path d="M5134.58,811.309C5110.3,789.997 5092.34,768.109 5080.8,749.549C5079.26,804.224 5104.73,840.952 5099,860.544C5115.3,850.621 5153.76,866.126 5204.66,856.936C5182.29,847.523 5157.99,831.859 5134.58,811.309Z" style="fill-rule:nonzero;"/>
        <path d="M5443.02,436.191C5466.74,455.887 5466.47,495.349 5442.4,524.331C5418.34,553.313 5379.6,560.84 5355.88,541.144C5332.16,521.448 5332.44,481.986 5356.5,453.004C5380.56,424.022 5419.3,416.495 5443.02,436.191Z" style="fill-rule:nonzero;"/>
        <path d="M5443.02,436.191C5466.74,455.887 5466.47,495.349 5442.4,524.331C5418.34,553.313 5379.6,560.84 5355.88,541.144C5332.16,521.448 5332.44,481.986 5356.5,453.004C5380.56,424.022 5419.3,416.495 5443.02,436.191Z" style="fill:none;stroke:rgb(35,31,32);stroke-width:11.17px;stroke-linecap:butt;stroke-linejoin:miter;"/>
        <path d="M5423.86,459.27C5445.64,477.356 5445.39,513.591 5423.29,540.204C5401.2,566.816 5365.63,573.728 5343.84,555.642C5322.06,537.556 5322.31,501.321 5344.41,474.709C5366.51,448.096 5402.08,441.184 5423.86,459.27Z" style="fill:rgb(255,200,0);fill-rule:nonzero;"/>
        <path d="M5423.86,459.27C5445.64,477.356 5445.39,513.591 5423.29,540.204C5401.2,566.816 5365.63,573.728 5343.84,555.642C5322.06,537.556 5322.31,501.321 5344.41,474.709C5366.51,448.096 5402.08,441.184 5423.86,459.27Z" style="fill:none;stroke:black;stroke-width:1.13px;stroke-linecap:butt;stroke-linejoin:miter;"/>
        <path d="M4973.78,522.002C4999.43,368.447 5269.7,449.56 5331.8,490.173C5328.56,608.174 4939.8,725.503 4973.78,522.002Z" style="fill:white;fill-rule:nonzero;"/>
        <path d="M4973.78,522.002C4999.43,368.447 5269.7,449.56 5331.8,490.173C5328.56,608.174 4939.8,725.503 4973.78,522.002Z" style="fill:none;stroke:black;stroke-width:13.6px;stroke-linecap:butt;stroke-linejoin:miter;"/>
        <path d="M5454.54,921.167C5600.76,867.725 5471.34,616.977 5420,563.402C5304.6,588.278 5260.76,991.992 5454.54,921.167Z" style="fill:white;fill-rule:nonzero;"/>
        <path d="M5454.54,921.167C5600.76,867.725 5471.34,616.977 5420,563.402C5304.6,588.278 5260.76,991.992 5454.54,921.167Z" style="fill:none;stroke:black;stroke-width:13.6px;stroke-linecap:butt;stroke-linejoin:miter;"/>
        <path d="M5446.94,604.373C5415.29,642.498 5351.58,641.816 5304.65,602.85C5257.72,563.883 5245.33,501.388 5276.99,463.263C5336.81,391.209 5506.77,532.319 5446.94,604.373Z" style="fill-rule:nonzero;"/>
    </g>
</svg>
