<?xml version="1.0" encoding="UTF-8" standalone="no"?><!DOCTYPE svg PUBLIC "-//W3C//DTD SVG 1.1//EN" "http://www.w3.org/Graphics/SVG/1.1/DTD/svg11.dtd"><svg width="100%" height="100%" viewBox="0 0 2948 1292" version="1.1" xmlns="http://www.w3.org/2000/svg" xmlns:xlink="http://www.w3.org/1999/xlink" xml:space="preserve" xmlns:serif="http://www.serif.com/" style="fill-rule:evenodd;clip-rule:evenodd;stroke-linejoin:round;stroke-miterlimit:2;"><path d="M2190.79,791.818c9.178,5.166 16.109,13.472 20.855,25.881c5.61,15.707 -0.035,15.139 -8.197,8.213c-5.149,-4.365 -11.739,-9.209 -22.707,-14.079c-17.256,-7.663 -7.918,-30.249 10.049,-20.015Z" style="fill:#f6f6f1;"/><path d="M2188.02,823.051c10.773,5.323 32.555,18.267 44.611,53.181c5.882,17.03 6.189,30.617 -8.229,14.348c-12.538,-14.148 -22.224,-26.084 -48.571,-39.63c-23.432,-12.048 -6.434,-37.102 12.189,-27.899Z" style="fill:#f6f6f1;"/><path d="M2180.16,737.559c2.563,-4.537 7.895,-6.377 11.905,-4.111c4.011,2.266 5.182,7.78 2.619,12.317c-2.564,4.537 -7.891,6.379 -11.902,4.113c-4.01,-2.266 -5.186,-7.782 -2.622,-12.319Z" style="fill:#f6f6f1;"/><path d="M2196.39,776.297c5.061,8.425 4.662,16.954 -2.375,11.451c-3.041,-2.378 -5.651,-4.238 -8.299,-5.877c3.629,-1.669 7.193,-3.53 10.674,-5.574Z" style="fill:#f6f6f1;"/><path d="M2174.98,770.81c0.977,-4.19 6.248,-7.524 12.154,-4.066c-3.888,1.827 -7.958,3.192 -12.154,4.066Z" style="fill:#f6f6f1;"/><path d="M2195.48,761.921c-0.782,-3.064 -0.366,-6.587 1.421,-9.751c3.096,-5.48 9.238,-7.99 14.324,-6.115c-4.485,6.408 -9.814,11.739 -15.745,15.866Z" style="fill:#f6f6f1;"/><path d="M2217.07,761.039c-0.254,0.677 -0.564,1.346 -0.934,1.999c-2.189,3.876 -5.902,6.266 -9.688,6.671c3.676,-2.675 7.225,-5.568 10.622,-8.67Z" style="fill:#f6f6f1;"/><path d="M2234.84,770.739c7.692,4.346 9.94,14.921 5.024,23.621c-4.915,8.7 -15.134,12.232 -22.825,7.886c-7.687,-4.343 -9.939,-14.92 -5.024,-23.62c4.916,-8.701 15.139,-12.23 22.825,-7.887Z" style="fill:#f6f6f1;"/><path d="M2391.03,1191.33c5.377,-0.4 9.578,3.907 9.387,9.623c-0.192,5.716 -4.7,10.677 -10.078,11.077c-5.372,0.402 -9.573,-3.905 -9.382,-9.621c0.187,-5.718 4.7,-10.676 10.073,-11.079Z" style="fill:#f6f6f1;"/><path d="M2378.91,1224.2c-1.869,6.307 -8.049,10.338 -13.801,9.005c-5.757,-1.336 -8.903,-7.529 -7.034,-13.837c1.869,-6.307 8.049,-10.338 13.801,-9.004c5.757,1.336 8.907,7.531 7.034,13.836Z" style="fill:#f6f6f1;"/><path d="M2332.99,1247.53c-5.64,-3.241 -7.246,-11.046 -3.591,-17.435c3.658,-6.386 11.197,-8.935 16.837,-5.694c5.639,3.24 7.249,11.047 3.59,17.434c-3.658,6.387 -11.193,8.938 -16.836,5.695Z" style="fill:#f6f6f1;"/><path d="M2316.39,1252.42c-5.298,6.062 -13.775,6.896 -18.937,1.863c-5.157,-5.031 -5.048,-14.026 0.25,-20.088c5.294,-6.064 13.771,-6.898 18.932,-1.865c5.158,5.031 5.049,14.026 -0.245,20.09Z" style="fill:#f6f6f1;"/><path d="M2280.76,1255.42c-6.703,5.509 -15.775,4.625 -20.26,-1.971c-4.489,-6.599 -2.695,-16.415 4.007,-21.923c6.702,-5.509 15.775,-4.625 20.264,1.974c4.489,6.599 2.691,16.412 -4.011,21.92Z" style="fill:#f6f6f1;"/><path d="M488.164,155.486c-15.754,-20.018 4.301,-40.943 19.73,-17.423c7.909,11.943 11.981,26.193 11.87,43.936c-0.577,22.207 -6.569,17.958 -12.597,4.569c-3.8,-8.438 -8.992,-18.362 -19.003,-31.082Z" style="fill:#f6f6f1;"/><path d="M500.92,114.635c-8.738,-11.925 6.056,-21.806 14.183,-7.97c10.739,18.281 5.699,44.044 -1.889,28.603c-4.164,-8.473 -7.522,-14.121 -12.294,-20.633Z" style="fill:#f6f6f1;"/><path d="M517.139,83.175c-3.451,-5.228 -2.369,-12.521 2.419,-16.29c4.788,-3.769 11.467,-2.586 14.919,2.642c3.452,5.227 2.369,12.521 -2.419,16.289c-4.788,3.769 -11.467,2.587 -14.919,-2.641Z" style="fill:#f6f6f1;"/><path d="M531.739,94.824c6.341,-4.992 15.188,-3.426 19.761,3.498c4.571,6.924 3.137,16.585 -3.204,21.577c-6.342,4.992 -15.189,3.426 -19.761,-3.499c-4.572,-6.924 -3.138,-16.584 3.204,-21.576Z" style="fill:#f6f6f1;"/><path d="M537.028,135.817c9.181,-7.228 21.989,-4.96 28.608,5.065c6.62,10.024 4.543,24.01 -4.638,31.237c-9.181,7.227 -21.99,4.96 -28.609,-5.065c-6.619,-10.024 -4.542,-24.01 4.639,-31.237Z" style="fill:#f6f6f1;"/><g><g><path d="M1473.81,150.321c813.418,-0 1473.81,236.512 1473.81,527.828c0,291.318 -660.392,527.829 -1473.81,527.829c-813.418,0 -1473.81,-236.511 -1473.81,-527.829c0,-291.316 660.392,-527.828 1473.81,-527.828Zm-196.274,57.76c606.244,-51.044 1448.49,155.697 1410.26,420.33c-29.202,202.14 -640.644,421.777 -1213.98,421.777c-573.336,0 -1212.89,-215.6 -1212.89,-420.934c0,-205.333 444.605,-373.011 1016.62,-421.173Z" style="fill:#be1e2d;"/><path d="M1307.47,1095.36c0,1.65 -1.429,2.42 -3.409,2.42l-38.601,-0l-0,2.529c5.059,-0 8.138,0.99 8.138,8.028l-0,47.51c-0,7.258 -3.299,8.028 -7.698,8.028l-0.44,-0l-0,2.529l39.261,0c1.21,0 2.089,0.88 1.979,1.98l0,0.44l2.64,-0l4.399,-22.215l-3.849,-0c-1.65,11.877 -9.238,17.266 -20.236,17.266l-6.048,-0l-0,-31.013l19.685,-0.44l0,-3.739l-5.609,-0c-10.997,-0 -14.736,-6.819 -14.736,-17.816c-0,-3.52 0.22,-6.929 0.66,-10.558l4.619,-0c12.537,-0 17.816,5.719 17.816,14.737l-0,0.55l3.849,-0l-0,-20.236l-2.42,0Z" style="fill:#f6f6f1;fill-rule:nonzero;"/><path d="M1320.78,1129.12c0,5.939 3.959,8.359 11.658,13.198c8.578,5.388 12.317,7.588 12.317,13.417c-0,5.058 -3.849,8.908 -9.348,8.908c-4.729,-0 -11.547,-2.97 -12.647,-14.847l-3.629,-0l-0,14.957c3.629,1.539 8.138,3.189 13.197,3.189c10.227,-0 19.685,-7.479 19.685,-16.606c0,-5.939 -3.849,-8.689 -11.547,-13.527l-5.609,-3.52c-4.729,-2.969 -7.038,-5.608 -7.038,-9.128c-0,-3.189 2.199,-6.378 6.378,-6.378c3.629,-0 10.448,2.749 10.778,13.197l3.849,-0l-0,-14.077c-3.849,-1.54 -6.818,-2.199 -10.448,-2.199c-11.437,-0 -17.596,7.148 -17.596,13.416Z" style="fill:#f6f6f1;fill-rule:nonzero;"/><path d="M1365.21,1104.82l0,8.358c0,6.379 -3.299,8.138 -7.918,8.138l-0.88,0l0,2.53l8.248,-0l0,36.731c0,4.839 1.76,7.369 5.059,7.369c4.289,-0 9.348,-3.409 14.517,-8.248l0,-3.08c-4.949,4.069 -6.818,5.059 -8.688,5.059c-1.98,0 -2.749,-1.319 -2.749,-3.629l-0,-34.202l13.197,-0l-0,-2.53l-4.729,0c-8.028,0 -8.468,-5.608 -8.468,-10.337c-0,-5.609 0.989,-7.149 3.409,-7.919l-0,-2.749l-10.998,4.509Z" style="fill:#f6f6f1;fill-rule:nonzero;"/><path d="M1393.8,1161.46c-0,3.629 2.859,6.489 6.488,6.489c3.63,-0 6.489,-2.97 6.489,-6.489c0,-3.409 -2.639,-6.488 -6.599,-6.488c-3.189,-0 -6.378,2.639 -6.378,6.488Z" style="fill:#f6f6f1;fill-rule:nonzero;"/><path d="M1459.24,1104.38l0,2.639c3.3,-1.209 7.259,-2.529 8.908,-2.529c2.53,0 3.959,2.2 3.959,4.509l0,48.389c0,4.399 -2.969,6.489 -6.598,6.489l-3.079,-0l-0,2.529l28.373,0l0,-2.529l-3.079,-0c-4.619,-0 -6.819,-2.53 -6.819,-7.369l0,-53.118c0,-2.639 1.76,-5.499 4.399,-6.048l0,-2.09l-26.064,9.128Z" style="fill:#f6f6f1;fill-rule:nonzero;"/><path d="M1510.49,1118.13c-0,8.138 5.499,17.156 18.586,17.156c9.568,0 15.946,-5.279 20.785,-10.228c0.11,2.09 0.22,4.179 0.22,6.049c-0,15.067 -5.609,33.763 -19.026,33.763c-5.169,-0 -11.547,-4.509 -11.877,-17.926l-3.849,-0l-0,18.255c4.289,1.98 8.028,2.75 12.647,2.75c17.706,-0 31.783,-18.696 31.783,-41.021c-0,-20.455 -11.328,-30.793 -24.415,-30.793c-12.207,-0 -24.854,10.008 -24.854,21.995Zm23.425,-19.356c5.608,0 12.757,5.279 12.757,16.387c-0,8.358 -4.509,16.056 -12.757,16.056c-7.259,0 -13.417,-5.829 -13.417,-15.726c-0,-6.599 3.189,-16.717 13.417,-16.717Z" style="fill:#f6f6f1;fill-rule:nonzero;"/><path d="M1574.82,1114.28c0,7.368 4.839,10.667 10.558,13.857l5.279,2.859c-7.918,5.389 -20.456,10.448 -20.456,21.335c0,7.039 6.269,15.617 22.215,15.617c14.627,-0 30.024,-9.348 30.024,-20.896c-0,-9.017 -7.699,-13.526 -15.947,-17.486c-2.199,-0.989 -3.189,-1.539 -5.608,-2.969l4.069,-2.969c6.488,-4.729 12.537,-9.788 12.537,-15.947c-0,-7.918 -9.458,-11.547 -17.486,-11.547c-10.998,-0 -25.185,7.038 -25.185,18.146Zm21.006,-15.067c7.258,0 12.867,3.629 12.867,10.338c-0,5.939 -4.069,10.448 -10.118,15.836c-10.118,-5.278 -15.726,-8.358 -15.726,-15.396c-0,-5.499 4.619,-10.778 12.977,-10.778Zm3.409,36.402c8.798,4.619 13.967,7.258 13.967,14.627c-0,5.938 -5.499,14.627 -16.826,14.627c-9.238,-0 -16.497,-5.719 -16.497,-14.627c0,-8.248 6.379,-13.307 13.417,-17.926c1.65,1.1 1.65,1.1 5.939,3.299Z" style="fill:#f6f6f1;fill-rule:nonzero;"/><path d="M1631.9,1118.13c-0,8.138 5.498,17.156 18.585,17.156c9.568,0 15.947,-5.279 20.786,-10.228c0.11,2.09 0.22,4.179 0.22,6.049c-0,15.067 -5.609,33.763 -19.026,33.763c-5.169,-0 -11.547,-4.509 -11.877,-17.926l-3.849,-0l-0,18.255c4.289,1.98 8.028,2.75 12.647,2.75c17.706,-0 31.783,-18.696 31.783,-41.021c-0,-20.455 -11.328,-30.793 -24.415,-30.793c-12.207,-0 -24.854,10.008 -24.854,21.995Zm23.424,-19.356c5.609,0 12.758,5.279 12.758,16.387c-0,8.358 -4.509,16.056 -12.758,16.056c-7.258,0 -13.417,-5.829 -13.417,-15.726c0,-6.599 3.19,-16.717 13.417,-16.717Z" style="fill:#f6f6f1;fill-rule:nonzero;"/></g><path d="M611.637,90.629c12.068,5.33 28.152,58.216 20.665,128.122c-8.097,75.587 -30.136,123.042 -54.588,165.079c40.33,-84.823 49.285,-188.373 15.725,-281.499c6.692,-9.522 11.968,-14.452 18.198,-11.702Z" style="fill:#f6f6f1;"/><path d="M525.127,214.209c-2.435,-34.115 42.708,-52.337 53.992,6.346c12.318,64.062 -22.515,163.517 -64.515,217.025c-23.988,30.559 -36.652,30.141 -21.64,-10.686c5.361,-14.576 21.227,-56.511 27.815,-93.227c10.962,-61.085 5.827,-98.73 4.348,-119.458Z" style="fill:#f6f6f1;"/><path d="M465.877,198.859c-20.682,-29.132 8.894,-48.146 25.492,-25.438c9.603,13.14 28.077,42.29 26.336,91.392c-0.85,23.95 -6.371,40.284 -15.279,11.837c-7.747,-24.737 -13.294,-45.038 -36.549,-77.791Z" style="fill:#f6f6f1;"/><path d="M428.657,252.629c-31.695,-41.416 17.229,-72.722 46.359,-21.554c16.675,29.316 24.017,57.31 26.88,84.47c4.95,46.974 -3.867,87.026 -18.064,47.73c-10.792,-29.869 -22.6,-68.081 -55.175,-110.646Z" style="fill:#f6f6f1;"/><path d="M376.137,290.049c-25.776,-32.006 16.788,-79.104 63.093,-3.356c38.113,62.346 43.591,115.181 41.663,141.534c-1.726,23.575 -11.046,33.796 -30.503,-13.861c-23.807,-58.309 -48.926,-92.87 -74.253,-124.317Z" style="fill:#f6f6f1;"/><path d="M301.727,383.959c-6.641,0.665 -12.519,-4.675 -13.127,-11.927c-0.608,-7.252 4.282,-13.668 10.924,-14.333c6.641,-0.664 12.518,4.676 13.126,11.927c0.609,7.252 -4.282,13.669 -10.923,14.333Z" style="fill:#f6f6f1;"/><path d="M294.247,396.709c2.714,7.637 -0.757,16.231 -7.752,19.193c-6.995,2.963 -14.865,-0.827 -17.578,-8.465c-2.714,-7.637 0.757,-16.23 7.752,-19.193c6.995,-2.963 14.865,0.827 17.578,8.465Z" style="fill:#f6f6f1;"/><path d="M261.897,428.609c6.731,-5.372 16.174,-3.768 21.094,3.581c4.918,7.348 3.45,17.66 -3.28,23.031c-6.731,5.371 -16.175,3.768 -21.094,-3.581c-4.918,-7.349 -3.45,-17.661 3.28,-23.031Z" style="fill:#f6f6f1;"/><path d="M257.847,499.869c-6.916,-6.575 -7.64,-18.027 -1.618,-25.578c6.022,-7.551 16.511,-8.342 23.426,-1.766c6.915,6.575 7.639,18.027 1.617,25.578c-6.022,7.551 -16.51,8.341 -23.425,1.766Z" style="fill:#f6f6f1;"/><path d="M284.677,515.439c8.61,5.56 11.461,17.69 6.369,27.091c-5.093,9.402 -16.201,12.516 -24.811,6.955c-8.611,-5.561 -11.462,-17.69 -6.37,-27.092c5.093,-9.401 16.202,-12.515 24.812,-6.954Z" style="fill:#f6f6f1;"/><path d="M397.337,497.769c28.304,9.63 34.443,17.801 8.911,21.732c-21.519,3.312 -31.214,5.568 -72.457,17.81c-39.16,11.623 -42.755,-45.876 6.613,-47.226c24.738,-0.677 45.979,3.957 56.933,7.684Z" style="fill:#f6f6f1;"/><path d="M319.497,473.999c-36.541,-3.598 -32.702,-62.647 19.707,-53.286c31.003,5.538 58.755,19.846 85.864,48.774c23.089,24.64 22.234,39.355 -1.193,29.453c-39.791,-16.819 -66.152,-21.176 -104.378,-24.941Z" style="fill:#f6f6f1;"/><path d="M339.597,407.329c-34.487,-9.032 -17.526,-48.631 17.667,-36.503c32.353,11.149 57.09,42.219 70.308,66.27c14.752,26.841 10.69,35.94 -3.82,20.77c-29.671,-31.021 -56.479,-43.378 -84.155,-50.537Z" style="fill:#f6f6f1;"/><path d="M611.637,90.629c-6.23,-2.75 -11.506,2.18 -18.198,11.702c33.56,93.126 24.605,196.676 -15.725,281.499c24.452,-42.037 46.491,-89.492 54.588,-165.079c7.487,-69.906 -8.597,-122.792 -20.665,-128.122Zm-353.79,409.242c6.915,6.575 17.403,5.785 23.425,-1.766c6.022,-7.551 5.298,-19.003 -1.617,-25.578c-6.915,-6.576 -17.404,-5.785 -23.426,1.766c-6.022,7.551 -5.298,19.003 1.618,25.578Zm26.836,15.563c-8.61,-5.561 -19.719,-2.447 -24.812,6.954c-5.092,9.402 -2.241,21.531 6.37,27.092c8.61,5.561 19.718,2.447 24.811,-6.955c5.092,-9.401 2.241,-21.531 -6.369,-27.091Zm-22.786,-86.83c-6.73,5.37 -8.198,15.682 -3.28,23.031c4.919,7.349 14.363,8.952 21.094,3.581c6.73,-5.371 8.198,-15.683 3.28,-23.031c-4.92,-7.349 -14.363,-8.953 -21.094,-3.581Zm32.348,-31.891c-2.713,-7.638 -10.583,-11.428 -17.578,-8.465c-6.995,2.963 -10.466,11.556 -7.752,19.193c2.713,7.638 10.583,11.428 17.578,8.465c6.995,-2.962 10.466,-11.556 7.752,-19.193Zm7.485,-12.758c6.641,-0.664 11.532,-7.081 10.923,-14.333c-0.608,-7.251 -6.485,-12.591 -13.126,-11.927c-6.642,0.665 -11.532,7.081 -10.924,14.333c0.608,7.252 6.486,12.592 13.127,11.927Zm17.765,90.038c38.226,3.765 64.587,8.122 104.378,24.941c23.427,9.902 24.282,-4.813 1.193,-29.453c-27.109,-28.928 -54.861,-43.236 -85.864,-48.774c-52.409,-9.361 -56.248,49.688 -19.707,53.286Zm77.847,23.777c-10.954,-3.727 -32.195,-8.361 -56.933,-7.684c-49.368,1.35 -45.773,58.849 -6.613,47.226c41.243,-12.242 50.938,-14.498 72.457,-17.81c25.532,-3.931 19.393,-12.102 -8.911,-21.732Zm127.789,-283.564c1.479,20.728 6.614,58.373 -4.348,119.458c-6.588,36.716 -22.454,78.651 -27.815,93.227c-15.012,40.827 -2.348,41.245 21.64,10.686c42,-53.508 76.833,-152.963 64.515,-217.025c-11.284,-58.683 -56.427,-40.461 -53.992,-6.346Zm11.897,-78.389c-9.181,7.227 -11.258,21.213 -4.639,31.237c6.619,10.025 19.428,12.292 28.609,5.065c9.181,-7.227 11.258,-21.213 4.638,-31.237c-6.619,-10.025 -19.427,-12.293 -28.608,-5.065Zm-5.289,-40.993c-6.342,4.992 -7.776,14.652 -3.204,21.576c4.572,6.925 13.419,8.491 19.761,3.499c6.341,-4.992 7.775,-14.653 3.204,-21.577c-4.573,-6.924 -13.42,-8.49 -19.761,-3.498Zm-14.6,-11.649c3.452,5.228 10.131,6.41 14.919,2.641c4.788,-3.768 5.871,-11.062 2.419,-16.289c-3.452,-5.228 -10.131,-6.411 -14.919,-2.642c-4.788,3.769 -5.87,11.062 -2.419,16.29Zm-16.219,31.46c4.772,6.512 8.13,12.16 12.294,20.633c7.588,15.441 12.628,-10.322 1.889,-28.603c-8.127,-13.836 -22.921,-3.955 -14.183,7.97Zm-12.756,40.851c10.011,12.72 15.203,22.644 19.003,31.082c6.028,13.389 12.02,17.638 12.597,-4.569c0.111,-17.743 -3.961,-31.993 -11.87,-43.936c-15.429,-23.52 -35.484,-2.595 -19.73,17.423Zm-22.289,43.367c23.255,32.753 28.802,53.054 36.549,77.791c8.908,28.447 14.429,12.113 15.279,-11.837c1.741,-49.102 -16.733,-78.252 -26.336,-91.392c-16.598,-22.708 -46.174,-3.694 -25.492,25.438Zm-37.212,53.774c32.575,42.565 44.383,80.777 55.175,110.646c14.197,39.296 23.014,-0.756 18.064,-47.73c-2.863,-27.16 -10.205,-55.154 -26.88,-84.47c-29.13,-51.168 -78.054,-19.862 -46.359,21.554Zm-52.524,37.424c25.327,31.447 50.446,66.008 74.253,124.317c19.457,47.657 28.777,37.436 30.503,13.861c1.928,-26.353 -3.55,-79.188 -41.663,-141.534c-46.305,-75.748 -88.869,-28.65 -63.093,3.356Zm-36.537,117.28c27.676,7.159 54.484,19.516 84.155,50.537c14.51,15.17 18.572,6.071 3.82,-20.77c-13.218,-24.051 -37.955,-55.121 -70.308,-66.27c-35.193,-12.128 -52.154,27.471 -17.667,36.503Zm-32.855,-80.103c26.331,-1.53 50.591,10.313 69.005,23.409c-18.782,-19.616 -38.962,-45.671 -42.853,-70.294c-5.346,-33.839 22.656,-60.022 51.483,-81.211c56.413,-41.465 75.146,-81.543 93.424,-142.647c22.984,-76.832 53.509,-65.557 80.945,-23.727c7.068,10.775 13.414,21.835 19.071,33.12c14.649,-25.932 30.281,-46.963 44.919,-43.653c23.773,5.375 51.251,102.484 31.648,213.423c-17.997,101.844 -64.18,164.407 -103.982,205.175c7.028,-4.272 14.944,-7.328 25.082,-8.845c2.681,-0.401 5.056,-3.321 5.444,-7.287c0.906,-9.27 2.685,-13.099 5.482,-16.513c5.093,-6.214 13.442,-9.433 21.423,-6.098c35.508,-36.883 62.163,-78.863 79.194,-121.264c7.24,-19.129 6.382,-16.329 5.677,-21.868c-1.747,-13.746 -2.508,-23.712 4.609,-27.397c12.406,-6.425 3.804,24.207 -0.915,38.267c-17.143,49.844 -47.229,96.846 -82.199,136.56c0.003,0.004 0.007,0.007 0.01,0.011c36.517,-22.174 67.868,-51.757 90.476,-82.704c10.244,-14.656 8.918,-12.461 9.474,-17.405c1.378,-12.27 2.814,-21.038 9.713,-22.432c12.027,-2.428 -1.803,21.79 -8.813,32.713c-24.932,38.192 -60.582,71.091 -97.114,95.481c4.676,10.83 1.501,31.962 -23.532,30.423c-4.133,-0.254 -6.824,2.409 -7.627,6.352c-3.179,15.599 -13.791,27.987 -20.744,32.716c-18.7,12.715 -30.459,13.322 -54.207,28.739c-19.088,12.39 -41.942,51.015 -80.967,71.365c-60.099,31.346 -123.536,38.405 -131.873,31.756c-8.645,-6.896 17.181,-30.367 54.314,-50.544c-29.376,12.343 -57.005,23.584 -75.028,26.231c-25.255,3.721 -41.992,-13.063 -51.232,-35.215c-38.578,-92.498 15.009,-222.877 79.693,-226.637Z" style="fill:#f17b20;fill-rule:nonzero;"/><path d="M2593.04,981.669c-4.01,-2.266 -5.186,-7.783 -2.622,-12.32c2.563,-4.537 7.895,-6.377 11.905,-4.111c4.006,2.264 5.182,7.78 2.619,12.317c-2.564,4.537 -7.896,6.377 -11.902,4.114Z" style="fill:#f6f6f1;"/><path d="M2580.32,954.439c5.312,3.001 6.866,10.305 3.47,16.315c-3.395,6.01 -10.454,8.448 -15.766,5.447c-5.311,-3.001 -6.861,-10.303 -3.466,-16.313c3.396,-6.01 10.45,-8.451 15.762,-5.449Z" style="fill:#f6f6f1;"/><path d="M2570.57,999.399c-5.019,-3.224 -9.334,-5.356 -15.771,-7.816c-11.724,-4.479 7.044,-12.014 21.007,-5.221c10.569,5.142 3.95,18.939 -5.236,13.037Z" style="fill:#f6f6f1;"/><path d="M2258.21,999.059c0.052,-12.298 0.534,-47.854 -4.519,-76.07c-8.408,-46.946 -22.501,-71.132 -29.251,-84.986c-11.11,-22.804 17.772,-53.518 42.203,-17.123c26.668,39.729 27.621,122.94 10.697,176.99c-9.668,30.868 -19.273,35.632 -19.13,1.189Z" style="fill:#f6f6f1;"/><path d="M2191.46,869.749c20.476,13.775 33.598,30.354 43.138,48.141c16.494,30.761 20.784,62.192 -0.554,40.471c-16.217,-16.508 -35.471,-38.428 -71.474,-55.092c-35.031,-16.215 -6.874,-57.555 28.89,-33.52Z" style="fill:#f6f6f1;"/><path d="M2133.39,950.309c-28.035,-12.02 -8.943,-61.827 46.382,-27.518c45.54,28.242 64.026,62.876 69.75,82.011c5.124,17.119 0.916,27.96 -26.636,2.514c-33.718,-31.138 -61.954,-45.2 -89.496,-57.007Z" style="fill:#f6f6f1;"/><path d="M2226.01,1076.84c-34.41,4.156 -55.357,11.639 -85.033,24.272c-28.374,12.073 -41.565,-30.61 0.271,-45.001c24.746,-8.513 49.447,-9.616 77.64,-0.274c24.014,7.958 27.376,18.554 7.122,21.003Z" style="fill:#f6f6f1;"/><path d="M2141.22,1014.14c27.288,-5.14 54.287,6.641 70.739,18.126c18.363,12.819 17.794,20.781 2.79,16c-30.684,-9.778 -54.145,-7.693 -76.839,-1.636c-28.314,7.466 -26.375,-26.899 3.31,-32.49Z" style="fill:#f6f6f1;"/><path d="M2094.36,1028.03c4.797,-3.113 10.654,-1.739 13.087,3.074c2.427,4.81 0.509,11.235 -4.288,14.348c-4.802,3.111 -10.659,1.736 -13.087,-3.074c-2.432,-4.813 -0.51,-11.235 4.288,-14.348Z" style="fill:#f6f6f1;"/><path d="M2084.95,1074.91c-4.111,-4.239 -3.847,-11.613 0.591,-16.468c4.438,-4.856 11.366,-5.357 15.482,-1.116c4.111,4.239 3.847,11.613 -0.591,16.469c-4.438,4.855 -11.367,5.356 -15.482,1.115Z" style="fill:#f6f6f1;"/><path d="M2089.26,1109.82c-5.69,-3.16 -7.393,-10.931 -3.811,-17.361c3.583,-6.43 11.101,-9.079 16.787,-5.921c5.69,3.16 7.393,10.931 3.811,17.36c-3.583,6.43 -11.101,9.079 -16.787,5.922Z" style="fill:#f6f6f1;"/><path d="M2101.81,1143.74c-6.975,-1.824 -10.635,-9.516 -8.172,-17.179c2.458,-7.666 10.106,-12.402 17.077,-10.58c6.975,1.823 10.635,9.515 8.173,17.179c-2.459,7.666 -10.107,12.402 -17.078,10.58Z" style="fill:#f6f6f1;"/><path d="M2121.6,1174.97c-7.969,-0.44 -13.409,-7.755 -12.149,-16.339c1.26,-8.584 8.737,-15.188 16.706,-14.748c7.969,0.439 13.408,7.755 12.149,16.339c-1.26,8.583 -8.742,15.185 -16.706,14.748Z" style="fill:#f6f6f1;"/><path d="M2218.4,1098.2c-15.231,10.895 -21.884,16.336 -49.472,41.325c-26.194,23.726 -44.536,-14.911 -7.894,-35.551c18.36,-10.344 35.545,-15.59 44.771,-17.364c23.84,-4.582 30.665,-1.338 12.595,11.59Z" style="fill:#f6f6f1;"/><path d="M2266.43,1194.61c7.168,-36.526 8.395,-45.033 9.867,-63.702c1.749,-22.149 8.05,-17.977 16.428,4.808c3.241,8.818 7.616,26.245 8.231,47.31c1.23,42.037 -41.331,46.264 -34.526,11.584Z" style="fill:#f6f6f1;"/><path d="M2313.76,1198.73c-4.498,-31.941 -8.898,-53.746 -23.095,-85.364c-8.355,-18.613 2.457,-21.201 21.665,-4.738c22.551,19.328 34.354,41.054 39.832,66.644c9.263,43.262 -34.105,53.989 -38.402,23.458Z" style="fill:#f6f6f1;"/><path d="M2388.13,1153.64c10.529,28.312 -17.906,47.707 -26.122,19.602c-6.524,-22.564 -16.844,-43.736 -41.055,-64.973c-11.838,-10.384 -5.311,-14.981 15.145,-5.867c18.332,8.168 42.356,25.214 52.032,51.238Z" style="fill:#f6f6f1;"/><path d="M2548.3,947.839c7.691,4.345 9.94,14.92 5.024,23.621c-4.916,8.7 -15.134,12.231 -22.825,7.886c-7.691,-4.346 -9.939,-14.921 -5.024,-23.621c4.916,-8.7 15.134,-12.232 22.825,-7.886Z" style="fill:#f6f6f1;"/><path d="M2331.83,1028.65c37.563,-42.389 109.33,-84.514 157.122,-82.174c43.783,2.145 32.379,42.734 7.113,44.986c-15.351,1.367 -43.34,1.778 -87.887,18.804c-26.776,10.233 -56.987,28.992 -67.494,35.383c-29.428,17.897 -30.304,7.212 -8.854,-16.999Z" style="fill:#f6f6f1;"/><path d="M2541.03,1015.39c-9.832,-6.881 -17.382,-10.027 -23.774,-12.182c-10.144,-3.417 -13.547,-7.961 2.801,-11.262c13.078,-2.338 23.77,-0.688 32.931,4.508c18.038,10.108 3.511,29.763 -11.958,18.936Z" style="fill:#f6f6f1;"/><path d="M2510.05,1039.78c-25.2,-15.577 -40.418,-17.712 -59.011,-21.153c-21.376,-3.954 -9.58,-10.703 8.043,-14.453c36.127,-7.691 58.455,4.287 68.574,10.768c17.493,11.202 4.805,38.691 -17.606,24.838Z" style="fill:#f6f6f1;"/><path d="M2472.08,1078.14c-32.853,-22.239 -61.564,-27.419 -84.073,-32.79c-29.617,-7.069 -0.481,-19.614 34.379,-21.36c20.159,-1.008 41.131,1.677 63.497,12.107c39.044,18.23 18.164,63.682 -13.803,42.043Z" style="fill:#f6f6f1;"/><path d="M2446.85,1127.42c-24.326,-17.498 -50.942,-34.427 -95.014,-47.24c-36.014,-10.468 -28.9,-19.667 -11.592,-24.112c19.343,-4.971 58.55,-7.011 106.241,17.423c57.939,29.683 25.129,71.74 0.365,53.929Z" style="fill:#f6f6f1;"/><path d="M2593.04,981.669c-4.01,-2.266 -5.186,-7.783 -2.622,-12.32c2.563,-4.537 7.895,-6.377 11.905,-4.111c4.006,2.264 5.182,7.78 2.619,12.317c-2.564,4.537 -7.896,6.377 -11.902,4.114Zm-22.468,17.734c-5.019,-3.224 -9.334,-5.356 -15.771,-7.816c-11.724,-4.479 7.044,-12.014 21.007,-5.221c10.569,5.142 3.95,18.939 -5.236,13.037Zm-29.548,15.987c-9.832,-6.881 -17.382,-10.027 -23.774,-12.182c-10.144,-3.417 -13.547,-7.961 2.801,-11.262c13.078,-2.338 23.77,-0.688 32.931,4.508c18.038,10.108 3.511,29.763 -11.958,18.936Zm-30.973,24.39c-25.2,-15.577 -40.418,-17.712 -59.011,-21.153c-21.376,-3.954 -9.58,-10.703 8.043,-14.453c36.127,-7.691 58.455,4.287 68.574,10.768c17.493,11.202 4.805,38.691 -17.606,24.838Zm-37.976,38.362c-32.853,-22.239 -61.564,-27.419 -84.073,-32.79c-29.617,-7.069 -0.481,-19.614 34.379,-21.36c20.159,-1.008 41.131,1.677 63.497,12.107c39.044,18.23 18.164,63.682 -13.803,42.043Zm-25.232,49.277c-24.326,-17.498 -50.942,-34.427 -95.014,-47.24c-36.014,-10.468 -28.9,-19.667 -11.592,-24.112c19.343,-4.971 58.55,-7.011 106.241,17.423c57.939,29.683 25.129,71.74 0.365,53.929Zm-58.712,26.224c10.529,28.312 -17.906,47.707 -26.122,19.602c-6.524,-22.564 -16.844,-43.736 -41.055,-64.973c-11.838,-10.384 -5.311,-14.981 15.145,-5.867c18.332,8.168 42.356,25.214 52.032,51.238Zm-9.215,70.559c-1.869,6.307 -8.049,10.338 -13.801,9.005c-5.757,-1.336 -8.903,-7.529 -7.034,-13.837c1.869,-6.307 8.049,-10.338 13.801,-9.004c5.757,1.336 8.907,7.531 7.034,13.836Zm12.113,-32.875c5.377,-0.4 9.578,3.907 9.387,9.623c-0.192,5.716 -4.7,10.677 -10.078,11.077c-5.372,0.402 -9.573,-3.905 -9.382,-9.621c0.187,-5.718 4.7,-10.676 10.073,-11.079Zm-58.039,56.203c-5.64,-3.241 -7.246,-11.046 -3.591,-17.435c3.658,-6.386 11.197,-8.935 16.837,-5.694c5.639,3.24 7.249,11.047 3.59,17.434c-3.658,6.387 -11.193,8.938 -16.836,5.695Zm-16.597,4.894c-5.298,6.062 -13.775,6.896 -18.937,1.863c-5.157,-5.031 -5.048,-14.026 0.25,-20.088c5.294,-6.064 13.771,-6.898 18.932,-1.865c5.158,5.031 5.049,14.026 -0.245,20.09Zm-2.63,-53.69c-4.498,-31.941 -8.898,-53.746 -23.095,-85.364c-8.355,-18.613 2.457,-21.201 21.665,-4.738c22.551,19.328 34.354,41.054 39.832,66.644c9.263,43.262 -34.105,53.989 -38.402,23.458Zm-33.002,56.685c-6.703,5.509 -15.775,4.625 -20.26,-1.971c-4.489,-6.599 -2.695,-16.415 4.007,-21.923c6.702,-5.509 15.775,-4.625 20.264,1.974c4.489,6.599 2.691,16.412 -4.011,21.92Zm-14.333,-60.802c7.168,-36.526 8.395,-45.033 9.867,-63.702c1.749,-22.149 8.05,-17.977 16.428,4.808c3.241,8.818 7.616,26.245 8.231,47.31c1.23,42.037 -41.331,46.264 -34.526,11.584Zm65.395,-165.959c37.563,-42.389 109.33,-84.514 157.122,-82.174c43.783,2.145 32.379,42.734 7.113,44.986c-15.351,1.367 -43.34,1.778 -87.887,18.804c-26.776,10.233 -56.987,28.992 -67.494,35.383c-29.428,17.897 -30.304,7.212 -8.854,-16.999Zm216.48,-80.816c7.691,4.345 9.94,14.92 5.024,23.621c-4.916,8.7 -15.134,12.231 -22.825,7.886c-7.691,-4.346 -9.939,-14.921 -5.024,-23.621c4.916,-8.7 15.134,-12.232 22.825,-7.886Zm32.016,6.602c5.312,3.001 6.866,10.305 3.47,16.315c-3.395,6.01 -10.454,8.448 -15.766,5.447c-5.311,-3.001 -6.861,-10.303 -3.466,-16.313c3.396,-6.01 10.45,-8.451 15.762,-5.449Zm-322.115,44.617c0.052,-12.298 0.534,-47.854 -4.519,-76.07c-8.408,-46.946 -22.501,-71.132 -29.251,-84.986c-11.11,-22.804 17.772,-53.518 42.203,-17.123c26.668,39.729 27.621,122.94 10.697,176.99c-9.668,30.868 -19.273,35.632 -19.13,1.189Zm-32.192,77.779c-34.41,4.156 -55.357,11.639 -85.033,24.272c-28.374,12.073 -41.565,-30.61 0.271,-45.001c24.746,-8.513 49.447,-9.616 77.64,-0.274c24.014,7.958 27.376,18.554 7.122,21.003Zm-7.612,21.365c-15.231,10.895 -21.884,16.336 -49.472,41.325c-26.194,23.726 -44.536,-14.911 -7.894,-35.551c18.36,-10.344 35.545,-15.59 44.771,-17.364c23.84,-4.582 30.665,-1.338 12.595,11.59Zm-96.8,76.765c-7.969,-0.44 -13.409,-7.755 -12.149,-16.339c1.26,-8.584 8.737,-15.188 16.706,-14.748c7.969,0.439 13.408,7.755 12.149,16.339c-1.26,8.583 -8.742,15.185 -16.706,14.748Zm-19.795,-31.224c-6.975,-1.824 -10.635,-9.516 -8.172,-17.179c2.458,-7.666 10.106,-12.402 17.077,-10.58c6.975,1.823 10.635,9.515 8.173,17.179c-2.459,7.666 -10.107,12.402 -17.078,10.58Zm-12.549,-33.923c-5.69,-3.16 -7.393,-10.931 -3.811,-17.361c3.583,-6.43 11.101,-9.079 16.787,-5.921c5.69,3.16 7.393,10.931 3.811,17.36c-3.583,6.43 -11.101,9.079 -16.787,5.922Zm-4.31,-34.909c-4.111,-4.239 -3.847,-11.613 0.591,-16.468c4.438,-4.856 11.366,-5.357 15.482,-1.116c4.111,4.239 3.847,11.613 -0.591,16.469c-4.438,4.855 -11.367,5.356 -15.482,1.115Zm9.413,-46.883c4.797,-3.113 10.654,-1.739 13.087,3.074c2.427,4.81 0.509,11.235 -4.288,14.348c-4.802,3.111 -10.659,1.736 -13.087,-3.074c-2.432,-4.813 -0.51,-11.235 4.288,-14.348Zm46.861,-13.89c27.288,-5.14 54.287,6.641 70.739,18.126c18.363,12.819 17.794,20.781 2.79,16c-30.684,-9.778 -54.145,-7.693 -76.839,-1.636c-28.314,7.466 -26.375,-26.899 3.31,-32.49Zm-7.837,-63.824c-28.035,-12.02 -8.943,-61.827 46.382,-27.518c45.54,28.242 64.026,62.876 69.75,82.011c5.124,17.119 0.916,27.96 -26.636,2.514c-33.718,-31.138 -61.954,-45.2 -89.496,-57.007Zm58.077,-80.562c20.476,13.775 33.598,30.354 43.138,48.141c16.494,30.761 20.784,62.192 -0.554,40.471c-16.217,-16.508 -35.471,-38.428 -71.474,-55.092c-35.031,-16.215 -6.874,-57.555 28.89,-33.52Zm-3.438,-46.704c10.773,5.323 32.555,18.267 44.611,53.181c5.882,17.03 6.189,30.617 -8.229,14.348c-12.538,-14.148 -22.224,-26.084 -48.571,-39.63c-23.432,-12.048 -6.434,-37.102 12.189,-27.899Zm2.767,-31.233c9.178,5.166 16.109,13.472 20.855,25.881c5.61,15.707 -0.035,15.139 -8.197,8.213c-5.149,-4.365 -11.739,-9.209 -22.707,-14.079c-17.256,-7.663 -7.918,-30.249 10.049,-20.015Zm-3.139,-24.758c13.041,8.465 16.252,28.416 6.369,20.688c-5.429,-4.244 -9.482,-6.839 -14.834,-9.474c-9.796,-4.824 -1.394,-17.613 8.465,-11.214Zm-7.487,-29.501c2.563,-4.537 7.895,-6.377 11.905,-4.111c4.011,2.266 5.182,7.78 2.619,12.317c-2.564,4.537 -7.891,6.379 -11.902,4.113c-4.01,-2.266 -5.186,-7.782 -2.622,-12.319Zm32.503,9.164c5.312,3.001 6.865,10.305 3.47,16.315c-3.396,6.01 -10.454,8.449 -15.766,5.447c-5.312,-3.001 -6.866,-10.305 -3.47,-16.315c3.395,-6.01 10.454,-8.448 15.766,-5.447Zm22.176,24.016c7.692,4.346 9.94,14.921 5.024,23.621c-4.915,8.7 -15.134,12.232 -22.825,7.886c-7.687,-4.343 -9.939,-14.92 -5.024,-23.62c4.916,-8.701 15.139,-12.23 22.825,-7.887Zm393.538,169.15c-104.57,-58.577 -237.646,-14.434 -314.329,80.321c14.676,-19.118 11.239,-25.753 11.675,-29.584c0.205,-1.823 1.582,-3.677 3.516,-3.885c11.339,-1.211 20.844,-18.234 14.787,-28.718c4.846,-7.59 18.259,-27.698 36.745,-48.133c16.651,-18.4 37.333,-39.347 72.177,-55.078c3.413,-1.54 7.825,0.627 12.471,1.619c12.537,2.676 19.707,-13.824 6.497,-12.693c-15.026,1.286 -36.679,13.057 -51.935,23.641c-30.1,20.882 -59.472,54.998 -79.681,86.514c-1.008,-0.742 -2.095,-1.364 -3.305,-1.867c16.567,-33.575 30.632,-76.339 32.985,-112.897c1.197,-18.528 0.101,-43.151 -6.551,-56.685c-5.849,-11.9 -16.282,2.757 -7.52,12.115c3.247,3.468 7.381,6.128 7.822,9.847c4.512,37.965 -2.762,66.489 -9.929,90.246c-7.964,26.38 -18.262,48.248 -22.267,56.313c-12.084,0.223 -21.789,17.133 -16.968,27.487c0.821,1.764 -0.057,3.9 -1.513,5.016c-3.056,2.351 -10.514,2.831 -19.316,25.268c41.591,-114.582 10.728,-251.35 -93.411,-310.691c-31.975,-18.22 -57.944,-13.895 -54.269,48.867c2.928,49.917 -0.215,85.347 -31.248,136.792c-15.856,26.287 -25.267,50.512 -13.998,70.757c17.072,30.673 36.629,16.167 110.108,60.734c-37.791,-20.269 -79.929,-34.837 -119.473,-11.153c-47.505,28.45 -52.205,140.779 1.923,189.885c12.96,11.763 30.091,16.787 48.023,4.111c24.588,-17.379 66.185,-72.227 100.308,-101.67c-46.44,58.773 -65.174,120.486 -55.224,125.925c9.793,5.716 52.986,-42.178 79.363,-112.287c-7.61,44.423 -33.124,108.358 -35.322,138.387c-1.599,21.903 11.54,33.982 28.304,39.013c69.996,21.022 163.786,-40.972 163.64,-96.343c-0.12,-46.095 -34.344,-74.671 -71.208,-96.581c76.093,39.94 73.761,64.177 108.844,62.972c23.156,-0.795 39.049,-21.357 53.384,-48.505c28.05,-53.13 56.776,-74.106 101.043,-97.357c55.656,-29.241 45.959,-53.717 13.852,-71.703Z" style="fill:#ffc904;fill-rule:nonzero;"/></g><path d="M561.141,491.245l0,10.851c22.174,0 34.441,4.718 34.441,34.441l-0,203.811c-0,30.194 -12.739,34.44 -32.553,34.44l-1.888,0l0,10.851l112.285,0l0,-10.851c-23.117,0 -34.912,-12.738 -34.912,-34.912l0,-100.018c10.379,4.246 21.23,8.492 34.912,8.492c49.066,-0 106.624,-53.312 106.624,-104.736c-0,-42.933 -37.743,-52.369 -76.429,-52.369l-142.48,0Zm118.89,10.851c43.405,0 54.727,42.461 54.727,71.24c0,31.61 -11.322,57.558 -43.404,57.558c-20.287,-0 -36.799,-10.379 -52.84,-21.702l0,-92.47c11.795,-8.492 24.533,-14.154 41.517,-14.626Z" style="fill:#415eac;fill-rule:nonzero;"/><path d="M785.239,592.679l0,11.323c10.38,-3.774 16.513,-5.19 20.759,-5.19c10.851,0 14.625,8.964 14.625,18.872l0,122.664c0,24.061 -10.379,34.44 -32.553,34.44l-2.831,0l0,10.851l119.834,0l-0,-10.851l-3.774,0c-31.61,0 -48.123,-5.189 -48.123,-46.706c0,-68.409 30.195,-126.911 60.861,-126.911c22.174,0 24.533,26.892 24.533,41.989l16.04,0l0,-71.239c-9.435,-2.359 -12.738,-3.303 -17.928,-3.303c-34.44,0 -59.444,38.687 -79.731,74.542l-0.944,0l0,-75.014l-9.907,0l-60.861,24.533Z" style="fill:#415eac;fill-rule:nonzero;"/><path d="M976.784,691.754c0,55.199 40.574,100.49 86.337,100.49c41.989,0 79.732,-35.855 100.018,-64.634l0,-15.097c-23.117,26.42 -49.065,47.65 -80.675,47.65c-35.856,-0 -75.014,-31.61 -75.014,-97.188c0,-3.774 0.472,-7.548 0.472,-11.323l148.141,0c-1.888,-51.424 -31.138,-83.034 -75.014,-83.034c-58.502,0 -104.265,60.86 -104.265,123.136Zm90.111,-108.982c26.42,-0 46.707,19.343 51.425,58.029l-108.511,0c6.605,-37.743 33.025,-58.029 57.086,-58.029Z" style="fill:#415eac;fill-rule:nonzero;"/><path d="M1198.52,625.704c0,25.477 16.985,35.856 50.01,56.614c36.799,23.118 52.839,32.554 52.839,57.558c0,21.702 -16.512,38.215 -40.101,38.215c-20.287,-0 -49.538,-12.738 -54.256,-63.691l-15.568,-0l-0,64.163c15.568,6.605 34.912,13.681 56.614,13.681c43.876,0 84.449,-32.081 84.449,-71.239c0,-25.477 -16.512,-37.271 -49.537,-58.03l-24.061,-15.097c-20.287,-12.738 -30.194,-24.061 -30.194,-39.158c-0,-13.682 9.435,-27.364 27.363,-27.364c15.569,0 44.82,11.795 46.235,56.615l16.513,-0l-0,-60.389c-16.513,-6.605 -29.251,-9.436 -44.82,-9.436c-49.066,0 -75.486,30.666 -75.486,57.558Z" style="fill:#415eac;fill-rule:nonzero;"/><path d="M1355.16,693.169c0,65.579 47.65,99.075 85.865,99.075c45.291,0 77.845,-39.158 97.659,-63.219l0,-16.041c-28.778,30.666 -50.481,48.594 -79.259,48.594c-42.461,0 -70.768,-40.101 -70.768,-90.111c-0,-43.404 22.645,-89.639 67.937,-89.639c25.948,0 56.614,16.513 58.973,61.332l16.984,0l0,-59.917c-21.702,-10.379 -42.932,-15.568 -62.275,-15.568c-64.163,-0 -115.116,58.973 -115.116,125.494Z" style="fill:#415eac;fill-rule:nonzero;"/><path d="M1555.66,492.189l-0,10.851c2.359,-0.944 11.794,-4.718 19.815,-4.718c8.02,0 15.097,2.359 15.097,19.343l-0,222.683c-0,24.533 -10.851,34.44 -33.497,34.44l-1.415,0l-0,10.851l104.736,0l0,-10.851l-8.02,0c-7.549,0 -29.251,-1.415 -29.251,-46.706c0,-71.712 41.989,-133.516 77.373,-133.516c15.097,0 24.533,11.323 24.533,28.779l-0,140.12c-0,8.021 -2.831,11.323 -9.908,11.323l-0.472,0l0,10.851l80.676,0l-0,-10.851l-1.887,0c-21.703,-0.943 -33.497,-7.076 -33.497,-33.968l-0,-124.08c-0,-31.138 -14.626,-49.065 -37.271,-49.065c-45.292,-0 -87.752,63.219 -96.244,76.901l-0.944,-0l-0,-158.52c-0,-8.964 5.661,-14.626 9.436,-16.041l-0,-9.436l-79.26,31.61Z" style="fill:#415eac;fill-rule:nonzero;"/><path d="M1814.67,692.226c-0,56.142 33.968,100.018 93.885,100.018c57.558,0 117.475,-49.537 117.475,-123.607c-0,-60.861 -38.687,-100.019 -96.245,-100.019c-57.086,0 -115.115,51.897 -115.115,123.608Zm94.829,-105.68c43.876,-0 85.393,50.009 85.393,107.567c-0,47.65 -28.779,77.845 -62.276,77.845c-46.707,-0 -86.808,-51.897 -86.808,-107.096c-0,-28.307 11.794,-78.316 63.691,-78.316Z" style="fill:#415eac;fill-rule:nonzero;"/><path d="M2045.85,692.226c-0,56.142 33.968,100.018 93.885,100.018c57.558,0 117.474,-49.537 117.474,-123.607c0,-60.861 -38.686,-100.019 -96.244,-100.019c-57.086,0 -115.115,51.897 -115.115,123.608Zm94.829,-105.68c43.876,-0 85.393,50.009 85.393,107.567c-0,47.65 -28.779,77.845 -62.276,77.845c-46.707,-0 -86.808,-51.897 -86.808,-107.096c-0,-28.307 11.794,-78.316 63.691,-78.316Z" style="fill:#415eac;fill-rule:nonzero;"/><path d="M2280.8,492.189l-0,10.851c6.605,-2.359 11.323,-3.774 17.928,-3.774c10.851,-0 17.456,7.548 17.456,20.286l-0,220.796c-0,24.533 -10.851,34.44 -33.969,34.44l-1.415,0l-0,10.851l105.68,0l-0,-10.851l-2.359,0c-22.646,0 -33.025,-10.379 -33.025,-34.44l-0,-254.764c-0,-7.077 3.302,-12.738 9.907,-15.569l0,-9.436l-80.203,31.61Z" style="fill:#415eac;fill-rule:nonzero;"/><g transform="matrix(1.39806,0.516662,-0.54362,1.47101,-689.884,-4572.7)"><clipPath id="_clip1"><path d="M2091.76,2933.64l-31.997,81.577c-2.376,6.02 -7.445,17.108 -15.524,17.583l0,3.643l34.691,0l-0,-3.643l-4.594,0c-3.802,0 -8.554,-2.693 -8.554,-8.712c0,-4.435 2.059,-12.989 5.386,-22.335l33.581,-0l5.703,16.316c4.118,11.563 3.96,11.88 3.96,12.197c0,2.059 -1.109,2.376 -2.851,2.376l-0.159,-0l0,3.801l27.721,0l-0,-3.801c-4.119,-0.476 -5.861,-1.901 -8.395,-5.228c-2.218,-3.009 -5.069,-8.553 -6.812,-13.622l-27.562,-80.152l-4.594,-0Zm11.405,63.361l-30.413,-0l16.315,-41.185l14.098,41.185Z" clip-rule="nonzero"/></clipPath><g clip-path="url(#_clip1)"><g transform="matrix(158.403,0,0,158.403,2043.61,3036.44)"><path d="M0.304,-0.649l-0.202,0.515c-0.015,0.038 -0.047,0.108 -0.098,0.111l0,0.023l0.219,0l0,-0.023l-0.029,0c-0.024,0 -0.054,-0.017 -0.054,-0.055c0,-0.028 0.013,-0.082 0.034,-0.141l0.212,0l0.036,0.103c0.026,0.073 0.025,0.075 0.025,0.077c-0,0.013 -0.007,0.015 -0.018,0.015l-0.001,0l-0,0.024l0.175,0l-0,-0.024c-0.026,-0.003 -0.037,-0.012 -0.053,-0.033c-0.014,-0.019 -0.032,-0.054 -0.043,-0.086l-0.174,-0.506l-0.029,0Zm0.072,0.4l-0.192,0l0.103,-0.26l0.089,0.26Z" style="fill:#797979;fill-rule:nonzero;"/></g><g transform="matrix(0.629329,-0.221039,0.232573,0.59812,104.285,1879.41)"><path d="M2205.51,2577.63l6.422,2.374l-5.038,132.144c-0.32,8.357 0.652,17.985 2.117,23.558c1.735,6.203 3.396,9.201 8.895,12.027l-2.066,5.593l-38.755,-14.322l2.066,-5.593l0.222,0.082c2.436,0.9 4.158,1.007 5.278,-2.022c0.172,-0.466 0.565,-0.85 1.094,-19.988l0.897,-26.946l-46.949,-17.351c-9.731,12.029 -17.26,23.548 -19.672,30.072c-3.272,8.855 1.908,15.271 7.223,17.235l6.422,2.374l-1.98,5.359l-48.499,-17.923l1.98,-5.359c11.553,3.475 24.667,-10.217 31.261,-17.844l89.082,-103.47Zm-18.5,99.098l2.68,-67.867l-45.199,52.153l42.519,15.714Z" style="fill:#08a94c;"/></g></g></g><path d="M722.654,356.98l-0,2.995c5.573,-0 8.655,1.302 8.655,9.506l0,56.255c0,8.334 -3.201,9.506 -8.181,9.506l-0.474,-0l-0,2.995l28.219,-0l0,-2.995c-5.81,-0 -8.774,-3.516 -8.774,-9.637l0,-27.606c2.609,1.172 5.336,2.344 8.774,2.344c12.331,-0 26.797,-14.715 26.797,-28.909c-0,-11.85 -9.486,-14.454 -19.208,-14.454l-35.808,-0Zm29.879,2.995c10.909,-0 13.754,11.72 13.754,19.663c0,8.725 -2.845,15.887 -10.908,15.887c-5.099,-0 -9.248,-2.865 -13.28,-5.99l0,-25.523c2.964,-2.344 6.166,-3.907 10.434,-4.037Z" style="fill:#797979;fill-rule:nonzero;"/><path d="M778.5,412.453c-0,15.496 8.537,27.607 23.595,27.607c14.465,-0 29.524,-13.673 29.524,-34.118c-0,-16.798 -9.723,-27.606 -24.188,-27.606c-14.347,-0 -28.931,14.324 -28.931,34.117Zm23.832,-29.169c11.027,0 21.461,13.803 21.461,29.69c0,13.152 -7.233,21.486 -15.651,21.486c-11.738,0 -21.817,-14.324 -21.817,-29.559c0,-7.814 2.965,-21.617 16.007,-21.617Z" style="fill:#797979;fill-rule:nonzero;"/><path d="M834.028,380.029l0,2.995c5.217,0.651 7.707,5.208 11.027,15.756l13.28,42.322l3.438,-0l4.15,-9.637l11.857,-29.429l12.45,39.066l3.438,-0l15.295,-39.978c5.336,-14.194 8.537,-17.059 13.28,-18.1l0,-2.995l-24.899,-0l-0,2.995c4.861,0.13 8.418,1.302 8.418,7.422c0,4.949 -1.897,11.98 -3.913,17.319l-6.995,18.882l-12.094,-37.763c-0.474,-1.563 -0.949,-3.647 -0.949,-4.037c0,-1.693 1.66,-1.823 2.372,-1.823l0.237,-0l-0,-2.995l-18.853,-0l0,2.995l0.356,-0c3.913,0.13 7.826,1.172 7.826,7.683c-0,2.604 -0.949,10.287 -4.269,18.881l-6.403,17.059l-12.449,-39.456c-0.119,-0.261 -0.356,-1.302 -0.356,-2.214c-0,-1.563 1.067,-1.953 2.253,-1.953l-0,-2.995l-18.497,-0Z" style="fill:#797979;fill-rule:nonzero;"/><path d="M922.518,412.323c0,15.236 10.197,27.737 21.699,27.737c10.552,-0 20.038,-9.897 25.136,-17.84l0,-4.167c-5.81,7.292 -12.331,13.152 -20.275,13.152c-9.011,-0 -18.853,-8.725 -18.853,-26.825c0,-1.042 0.119,-2.084 0.119,-3.126l37.231,0c-0.475,-14.194 -7.826,-22.918 -18.853,-22.918c-14.702,-0 -26.204,16.798 -26.204,33.987Zm22.647,-30.081c6.64,0 11.738,5.339 12.924,16.017l-27.271,0c1.66,-10.417 8.3,-16.017 14.347,-16.017Z" style="fill:#797979;fill-rule:nonzero;"/><path d="M975.163,357.24l-0,2.995c1.66,-0.651 2.846,-1.041 4.506,-1.041c2.727,-0 4.387,2.083 4.387,5.599l-0,60.943c-0,6.771 -2.727,9.506 -8.537,9.506l-0.356,-0l-0,2.995l26.559,-0l0,-2.995l-0.592,-0c-5.692,-0 -8.3,-2.865 -8.3,-9.506l-0,-70.319c-0,-1.953 0.83,-3.516 2.49,-4.297l-0,-2.604l-20.157,8.724Z" style="fill:#797979;fill-rule:nonzero;"/><path d="M1007.3,357.24l0,2.995c1.66,-0.651 2.846,-1.041 4.506,-1.041c2.727,-0 4.387,2.083 4.387,5.599l-0,60.943c-0,6.771 -2.727,9.506 -8.537,9.506l-0.356,-0l0,2.995l26.559,-0l0,-2.995l-0.592,-0c-5.692,-0 -8.3,-2.865 -8.3,-9.506l-0,-70.319c-0,-1.953 0.83,-3.516 2.49,-4.297l-0,-2.604l-20.157,8.724Z" style="fill:#797979;fill-rule:nonzero;"/><path d="M1071.44,356.98l-0,2.995l0.593,-0c4.624,-0 8.181,1.302 8.181,9.506l-0,46.228c-0,16.147 12.212,24.351 28.219,24.351c14.228,-0 21.461,-5.6 25.255,-12.111c3.676,-6.25 3.32,-18.1 3.32,-22.658l0,-5.078c0,-9.637 0.83,-17.45 1.542,-22.919c2.015,-15.887 6.995,-16.798 9.248,-17.319l0,-2.995l-25.492,-0l-0,2.995c4.505,0.651 10.671,2.344 10.671,45.316l-0,3.646c-0,14.585 -3.913,27.216 -21.58,27.216c-12.331,0 -20.393,-8.594 -20.393,-19.923l-0,-46.749c-0,-6.641 2.015,-9.506 8.181,-9.506l0.593,-0l-0,-2.995l-28.338,-0Z" style="fill:#797979;fill-rule:nonzero;"/><path d="M1151.95,384.977l-0,3.125c2.846,-1.172 3.794,-1.562 4.98,-1.562c2.608,-0 3.794,1.432 3.794,5.599l-0,33.466c-0,6.251 -2.609,9.637 -8.063,9.637l-0.711,-0l-0,2.995l26.322,-0l0,-2.995l-0.948,-0c-5.573,-0 -8.537,-2.214 -8.537,-12.371c-0,-20.835 10.552,-37.243 19.919,-37.243c4.15,0 5.692,4.167 5.692,7.032l-0,39.717c-0,1.562 -0.83,2.865 -2.372,2.865l-0.118,-0l-0,2.995l20.156,-0l0,-2.995l-0.593,-0c-5.691,-0 -8.299,-2.475 -8.299,-9.376l-0,-34.118c-0,-7.031 -2.609,-13.412 -9.842,-13.412c-8.892,-0 -16.125,9.896 -23.595,20.705l-0.237,-0l0,-20.966l-2.49,0l-15.058,6.902Z" style="fill:#797979;fill-rule:nonzero;"/><path d="M1225.58,357.891c0,3.386 2.49,5.99 5.573,5.99c3.083,0 5.573,-2.734 5.573,-5.99c-0,-3.125 -2.253,-6.12 -5.692,-6.12c-2.727,0 -5.454,2.474 -5.454,6.12Zm-7.707,26.695l0,3.256c1.66,-0.651 3.083,-1.302 4.743,-1.302c3.438,-0 4.15,2.344 4.15,3.776l-0,35.42c-0,6.771 -2.846,9.506 -8.181,9.506l-0.712,-0l0,2.995l26.559,-0l0,-2.995l-0.711,-0c-5.454,-0 -8.181,-2.865 -8.181,-9.506l-0,-47.53l-2.846,-0l-14.821,6.38Z" style="fill:#797979;fill-rule:nonzero;"/><path d="M1257.71,365.314l0,9.897c0,7.552 -3.557,9.636 -8.537,9.636l-0.948,-0l-0,2.995l8.892,-0l0,43.493c0,5.73 1.897,8.725 5.455,8.725c4.624,-0 10.078,-4.037 15.651,-9.767l-0,-3.646c-5.336,4.818 -7.352,5.99 -9.367,5.99c-2.135,0 -2.965,-1.562 -2.965,-4.297l0,-40.498l14.229,-0l-0,-2.995l-5.099,-0c-8.655,-0 -9.13,-6.641 -9.13,-12.241c0,-6.641 1.068,-8.464 3.676,-9.376l0,-3.255l-11.857,5.339Z" style="fill:#797979;fill-rule:nonzero;"/><path d="M1283.92,412.323c-0,15.236 10.197,27.737 21.698,27.737c10.553,-0 20.038,-9.897 25.137,-17.84l-0,-4.167c-5.81,7.292 -12.332,13.152 -20.276,13.152c-9.011,-0 -18.852,-8.725 -18.852,-26.825c-0,-1.042 0.118,-2.084 0.118,-3.126l37.231,0c-0.474,-14.194 -7.826,-22.918 -18.852,-22.918c-14.703,-0 -26.204,16.798 -26.204,33.987Zm22.646,-30.081c6.64,0 11.739,5.339 12.924,16.017l-27.27,0c1.66,-10.417 8.299,-16.017 14.346,-16.017Z" style="fill:#797979;fill-rule:nonzero;"/><path d="M1367.62,356.98l0,3.386c1.897,-0.782 3.202,-1.303 4.862,-1.303c2.845,0 3.794,2.605 3.794,5.209l-0,17.319c-3.32,-1.693 -7.47,-3.385 -11.857,-3.385c-13.635,-0 -28.694,18.1 -28.694,37.112c0,11.459 5.692,24.742 16.719,24.742c8.774,-0 13.754,-6.772 22.646,-19.012l0.949,-1.563l0.237,0l-0,20.445l2.727,-0l14.821,-6.251l0,-3.255c-1.778,0.781 -3.083,1.432 -4.624,1.432c-2.49,-0 -4.15,-1.953 -4.15,-5.079l-0,-70.709c-0,-2.344 1.186,-4.427 2.608,-4.948l0,-2.604l-20.038,8.464Zm-6.758,25.783c5.454,0 11.145,3.516 15.414,7.293c0.474,2.083 0.711,4.948 0.711,7.552c0,13.022 -7.588,34.118 -19.326,34.118c-7.944,-0 -13.162,-10.288 -13.162,-21.486c0,-9.376 4.032,-27.477 16.363,-27.477Z" style="fill:#797979;fill-rule:nonzero;"/><path d="M1436.75,356.98l-0,2.995l0.474,-0c4.862,0.13 7.233,1.432 7.233,7.553l-0.119,2.474l-1.422,17.71c-1.068,13.022 -3.913,28.518 -6.64,36.591c-2.846,8.595 -4.506,9.376 -8.3,10.939l-0,2.995l26.085,-0l-0,-2.995l-0.237,-0c-1.779,-0.131 -3.202,-1.042 -3.557,-1.303c-4.624,-3.385 -5.336,-13.152 -5.336,-19.402c0,-6.511 0.593,-16.017 1.186,-23.049l2.016,-24.221l0.237,0l27.033,73.965l2.49,-0l15.533,-39.847c0.118,-0.391 4.387,-10.548 13.042,-27.737l0.237,-0l4.388,50.655c0.118,0.782 0.118,1.693 0.118,2.474c0,7.032 -2.846,8.465 -7.588,8.465l-0.356,-0l-0,2.995l28.575,-0l0,-2.995c-8.181,-0.261 -9.248,-2.865 -10.315,-14.976l-4.506,-50.915c-0.474,-5.73 1.186,-9.376 8.3,-9.376l0.711,-0l0,-2.995l-20.631,-0c-2.49,8.464 -4.268,13.933 -11.501,32.555l-13.398,34.638l-24.781,-67.193l-18.971,-0Z" style="fill:#797979;fill-rule:nonzero;"/><path d="M1535.28,412.323c-0,15.236 10.196,27.737 21.698,27.737c10.552,-0 20.038,-9.897 25.136,-17.84l0,-4.167c-5.81,7.292 -12.331,13.152 -20.275,13.152c-9.011,-0 -18.853,-8.725 -18.853,-26.825c0,-1.042 0.119,-2.084 0.119,-3.126l37.231,0c-0.475,-14.194 -7.826,-22.918 -18.853,-22.918c-14.702,-0 -26.203,16.798 -26.203,33.987Zm22.646,-30.081c6.64,0 11.738,5.339 12.924,16.017l-27.271,0c1.66,-10.417 8.3,-16.017 14.347,-16.017Z" style="fill:#797979;fill-rule:nonzero;"/><path d="M1595.63,365.314l-0,9.897c-0,7.552 -3.557,9.636 -8.537,9.636l-0.949,-0l0,2.995l8.893,-0l0,43.493c0,5.73 1.897,8.725 5.454,8.725c4.624,-0 10.079,-4.037 15.651,-9.767l0,-3.646c-5.335,4.818 -7.351,5.99 -9.367,5.99c-2.134,0 -2.964,-1.562 -2.964,-4.297l0,-40.498l14.228,-0l0,-2.995l-5.098,-0c-8.655,-0 -9.13,-6.641 -9.13,-12.241c0,-6.641 1.067,-8.464 3.676,-9.376l-0,-3.255l-11.857,5.339Z" style="fill:#797979;fill-rule:nonzero;"/><path d="M1621.95,357.24l0,2.995c0.593,-0.26 2.964,-1.302 4.98,-1.302c2.016,0 3.794,0.651 3.794,5.339l0,61.464c0,6.771 -2.727,9.506 -8.418,9.506l-0.356,-0l0,2.995l26.322,-0l0,-2.995l-2.015,-0c-1.897,-0 -7.351,-0.391 -7.351,-12.892c-0,-19.793 10.552,-36.852 19.445,-36.852c3.794,-0 6.165,3.125 6.165,7.943l0,38.675c0,2.214 -0.711,3.126 -2.49,3.126l-0.118,-0l-0,2.995l20.275,-0l0,-2.995l-0.474,-0c-5.454,-0.261 -8.419,-1.954 -8.419,-9.376l0,-34.248c0,-8.594 -3.675,-13.543 -9.366,-13.543c-11.383,0 -22.054,17.45 -24.188,21.226l-0.238,0l0,-43.754c0,-2.474 1.423,-4.036 2.372,-4.427l-0,-2.604l-19.92,8.724Z" style="fill:#797979;fill-rule:nonzero;"/><path d="M1687.05,412.453c0,15.496 8.537,27.607 23.596,27.607c14.465,-0 29.523,-13.673 29.523,-34.118c0,-16.798 -9.722,-27.606 -24.188,-27.606c-14.347,-0 -28.931,14.324 -28.931,34.117Zm23.833,-29.169c11.027,0 21.461,13.803 21.461,29.69c-0,13.152 -7.233,21.486 -15.651,21.486c-11.739,0 -21.817,-14.324 -21.817,-29.559c-0,-7.814 2.964,-21.617 16.007,-21.617Z" style="fill:#797979;fill-rule:nonzero;"/><path d="M1777.16,356.98l-0,3.386c1.897,-0.782 3.201,-1.303 4.861,-1.303c2.846,0 3.794,2.605 3.794,5.209l0,17.319c-3.32,-1.693 -7.47,-3.385 -11.857,-3.385c-13.635,-0 -28.693,18.1 -28.693,37.112c-0,11.459 5.691,24.742 16.718,24.742c8.774,-0 13.754,-6.772 22.647,-19.012l0.948,-1.563l0.237,0l0,20.445l2.727,-0l14.821,-6.251l0,-3.255c-1.778,0.781 -3.082,1.432 -4.624,1.432c-2.49,-0 -4.15,-1.953 -4.15,-5.079l0,-70.709c0,-2.344 1.186,-4.427 2.609,-4.948l-0,-2.604l-20.038,8.464Zm-6.759,25.783c5.454,0 11.146,3.516 15.414,7.293c0.474,2.083 0.712,4.948 0.712,7.552c-0,13.022 -7.589,34.118 -19.327,34.118c-7.944,-0 -13.161,-10.288 -13.161,-21.486c-0,-9.376 4.031,-27.477 16.362,-27.477Z" style="fill:#797979;fill-rule:nonzero;"/><path d="M1815.58,357.891c-0,3.386 2.49,5.99 5.573,5.99c3.082,0 5.572,-2.734 5.572,-5.99c0,-3.125 -2.252,-6.12 -5.691,-6.12c-2.727,0 -5.454,2.474 -5.454,6.12Zm-7.707,26.695l-0,3.256c1.66,-0.651 3.083,-1.302 4.743,-1.302c3.438,-0 4.15,2.344 4.15,3.776l-0,35.42c-0,6.771 -2.846,9.506 -8.182,9.506l-0.711,-0l-0,2.995l26.559,-0l0,-2.995l-0.711,-0c-5.454,-0 -8.181,-2.865 -8.181,-9.506l-0,-47.53l-2.846,-0l-14.821,6.38Z" style="fill:#797979;fill-rule:nonzero;"/><path d="M1843.09,394.092c-0,7.032 4.268,9.897 12.568,15.627c9.249,6.38 13.28,8.985 13.28,15.886c-0,5.99 -4.15,10.548 -10.078,10.548c-5.099,0 -12.45,-3.516 -13.636,-17.579l-3.913,-0l0,17.709c3.913,1.823 8.774,3.777 14.229,3.777c11.026,-0 21.223,-8.855 21.223,-19.663c0,-7.032 -4.15,-10.288 -12.449,-16.017l-6.047,-4.167c-5.099,-3.516 -7.589,-6.642 -7.589,-10.809c0,-3.776 2.372,-7.552 6.877,-7.552c3.913,-0 11.264,3.255 11.62,15.626l4.15,0l-0,-16.668c-4.15,-1.823 -7.351,-2.604 -11.264,-2.604c-12.331,-0 -18.971,8.464 -18.971,15.886Z" style="fill:#797979;fill-rule:nonzero;"/><path d="M1890.99,365.314l-0,9.897c-0,7.552 -3.557,9.636 -8.537,9.636l-0.949,-0l0,2.995l8.893,-0l-0,43.493c-0,5.73 1.897,8.725 5.454,8.725c4.624,-0 10.078,-4.037 15.651,-9.767l0,-3.646c-5.336,4.818 -7.351,5.99 -9.367,5.99c-2.134,0 -2.964,-1.562 -2.964,-4.297l-0,-40.498l14.228,-0l0,-2.995l-5.098,-0c-8.656,-0 -9.13,-6.641 -9.13,-12.241c-0,-6.641 1.067,-8.464 3.676,-9.376l-0,-3.255l-11.857,5.339Z" style="fill:#797979;fill-rule:nonzero;"/><path d="M1951.58,401.515c0,25.262 16.718,38.545 32.014,38.545c13.872,-0 25.848,-10.288 33.436,-17.319l0,-3.907c-2.964,2.214 -12.568,11.98 -26.441,11.98c-17.666,0 -29.049,-16.407 -29.049,-36.852c0,-15.756 7.47,-34.768 27.034,-34.768c11.975,-0 21.342,6.511 22.646,19.012l4.032,-0l-0,-19.143c-6.166,-2.474 -13.399,-4.036 -21.461,-4.036c-24.9,-0 -42.211,21.225 -42.211,46.488Z" style="fill:#797979;fill-rule:nonzero;"/><path d="M2022.96,357.24l-0,2.995c0.592,-0.26 2.964,-1.302 4.979,-1.302c2.016,0 3.795,0.651 3.795,5.339l-0,61.464c-0,6.771 -2.727,9.506 -8.419,9.506l-0.355,-0l-0,2.995l26.322,-0l-0,-2.995l-2.016,-0c-1.897,-0 -7.351,-0.391 -7.351,-12.892c-0,-19.793 10.553,-36.852 19.445,-36.852c3.794,-0 6.166,3.125 6.166,7.943l-0,38.675c-0,2.214 -0.712,3.126 -2.49,3.126l-0.119,-0l0,2.995l20.275,-0l0,-2.995l-0.474,-0c-5.454,-0.261 -8.418,-1.954 -8.418,-9.376l-0,-34.248c-0,-8.594 -3.676,-13.543 -9.367,-13.543c-11.383,0 -22.054,17.45 -24.188,21.226l-0.237,0l-0,-43.754c-0,-2.474 1.423,-4.036 2.371,-4.427l0,-2.604l-19.919,8.724Z" style="fill:#797979;fill-rule:nonzero;"/><path d="M2087.34,382.242l0,2.995c1.068,-0.13 2.135,-0.39 3.202,-0.39c4.15,-0 5.454,2.995 5.454,5.339l-0,35.55c-0,7.031 2.253,14.324 9.604,14.324c9.367,-0 16.244,-9.636 21.817,-17.58c1.067,-1.562 1.897,-2.734 2.015,-3.386l0.237,0l0,21.096l2.965,-0l15.888,-6.902l-0,-3.125c-2.253,1.042 -4.031,1.953 -6.047,1.953c-3.439,0 -4.031,-3.906 -4.031,-5.729l-0,-41.41c-0,-1.953 0.592,-3.776 2.608,-4.037l0,-2.474l-20.157,3.776l0,2.995c1.542,-0.39 2.609,-0.52 3.32,-0.52c4.506,-0 6.166,3.646 6.166,11.329c-0,20.184 -11.146,36.982 -19.801,36.982c-3.676,-0 -5.81,-3.776 -5.81,-8.204l-0,-39.847c-0,-2.084 0.711,-3.516 2.371,-4.037l0,-2.474l-19.801,3.776Z" style="fill:#797979;fill-rule:nonzero;"/><path d="M2153.97,384.977l0,3.125c2.609,-1.042 4.15,-1.432 5.217,-1.432c2.727,-0 3.676,2.474 3.676,5.209l-0,33.857c-0,6.641 -2.609,9.506 -8.182,9.506l-0.711,-0l0,2.995l30.116,-0l0,-2.995l-0.948,-0c-7.944,-0 -12.094,-1.433 -12.094,-12.892c-0,-18.882 7.588,-35.029 15.295,-35.029c5.573,-0 6.166,7.422 6.166,11.589l4.031,0l0,-19.663c-2.371,-0.651 -3.201,-0.911 -4.505,-0.911c-8.656,-0 -14.94,10.678 -20.039,20.574l-0.237,0l0,-20.704l-2.49,-0l-15.295,6.771Z" style="fill:#797979;fill-rule:nonzero;"/><path d="M2202.07,412.714c-0,18.1 11.975,27.346 21.579,27.346c11.383,-0 19.564,-10.808 24.544,-17.45l-0,-4.427c-7.233,8.464 -12.687,13.412 -19.92,13.412c-10.671,0 -17.785,-11.068 -17.785,-24.871c-0,-11.981 5.691,-24.742 17.074,-24.742c6.521,-0 14.228,4.558 14.821,16.928l4.268,0l0,-16.537c-5.454,-2.865 -10.789,-4.298 -15.651,-4.298c-16.125,0 -28.93,16.278 -28.93,34.639Z" style="fill:#797979;fill-rule:nonzero;"/><path d="M2252.3,357.24l-0,2.995c0.592,-0.26 2.964,-1.302 4.979,-1.302c2.016,0 3.795,0.651 3.795,5.339l-0,61.464c-0,6.771 -2.727,9.506 -8.419,9.506l-0.355,-0l-0,2.995l26.322,-0l-0,-2.995l-2.016,-0c-1.897,-0 -7.351,-0.391 -7.351,-12.892c-0,-19.793 10.553,-36.852 19.445,-36.852c3.794,-0 6.166,3.125 6.166,7.943l-0,38.675c-0,2.214 -0.712,3.126 -2.49,3.126l-0.119,-0l0,2.995l20.276,-0l-0,-2.995l-0.475,-0c-5.454,-0.261 -8.418,-1.954 -8.418,-9.376l-0,-34.248c-0,-8.594 -3.676,-13.543 -9.367,-13.543c-11.383,0 -22.054,17.45 -24.188,21.226l-0.237,0l-0,-43.754c-0,-2.474 1.423,-4.036 2.371,-4.427l0,-2.604l-19.919,8.724Z" style="fill:#797979;fill-rule:nonzero;"/><path d="M839.574,1013.81c2.273,48.138 36.721,71.878 67.143,70.442c27.593,-1.303 50.486,-22.03 64.947,-36.142l-0.352,-7.445c-5.696,4.497 -23.92,24.009 -51.513,25.312c-35.139,1.659 -59.255,-28.537 -61.094,-67.495c-1.418,-30.025 11.729,-66.954 50.641,-68.792c23.819,-1.124 43.036,10.403 46.755,34.102l8.018,-0.379l-1.722,-36.476c-12.486,-4.136 -27.012,-6.434 -43.049,-5.677c-49.525,2.338 -82.047,44.411 -79.774,92.55Z" style="fill:#08a94c;fill-rule:nonzero;"/><path d="M656.191,861.634l2.236,6.269l1.49,-0.531c10.365,-3.109 17.721,-3.672 23.685,13.046l39.979,112.065c6.057,16.979 -0.149,21.549 -10.576,25.269l-0.993,0.354l2.329,6.53l57.847,-20.636c33.019,-11.78 51.009,-50 40.572,-79.257c-9.506,-26.645 -32.688,-21.024 -50.067,-14.825l-1.738,0.62l-0.186,-0.522c14.519,-18.136 24.724,-39.739 17.641,-59.592c-8.573,-24.033 -27.629,-22.535 -46.498,-15.804l-75.721,27.014Zm61.882,-15.598c24.082,-8.591 39.981,16.361 44.547,29.161c5.778,16.196 -0.301,28.966 -15.942,34.545l-24.082,8.592l-21.154,-59.298c2.822,-5.424 9.68,-10.52 16.631,-13Zm6.666,78.306l13.407,-4.783c24.578,-8.768 47.797,2.972 57.116,29.094c7.269,20.376 0.757,37.422 -16.87,43.711c-10.428,3.72 -20.36,2.551 -29.703,-0.888l-23.95,-67.134Z" style="fill:#08a94c;fill-rule:nonzero;"/><path d="M873.512,831.964l0,2.861c5.375,0.622 7.499,5.597 12.249,17.164l20.497,60.445l3.625,0l12.373,-31.466c1,-2.488 7.374,-16.915 9.624,-19.9l17.748,51.366l3.625,0l24.872,-61.689c1.374,-3.483 5.874,-15.049 12.748,-15.92l0.25,-0l0,-2.861l-27.497,0l0,2.861l0.625,-0c5.25,0.124 9.249,1.119 9.249,8.209c0,3.731 -2.999,13.432 -6.499,22.387l-11.749,29.601l-19.497,-56.963c-0.125,-0.249 -0.25,-0.871 -0.25,-1.368c-0,-1.617 1.5,-1.866 2.624,-1.866l0,-2.861l-21.622,0l0,2.861l0.375,-0c6.999,0.497 9.874,6.467 9.874,13.432c-0,4.229 -0.875,12.065 -5.5,23.756l-9.123,23.009l-18.873,-55.595c-0.625,-1.741 -0.75,-1.99 -0.75,-2.612c-0,-1.493 1,-1.866 2.25,-1.99l-0,-2.861l-21.248,0Z" style="fill:#797979;fill-rule:nonzero;"/><path d="M995.701,832.213l-0,2.861c0.625,-0.249 3.124,-1.244 5.249,-1.244c2.125,-0 4,0.622 4,5.099l-0,58.705c-0,6.467 -2.875,9.079 -8.874,9.079l-0.375,0l-0,2.861l27.747,-0l-0,-2.861l-2.125,0c-2,0 -7.749,-0.373 -7.749,-12.313c-0,-18.905 11.123,-35.198 20.497,-35.198c4,0 6.499,2.985 6.499,7.587l0,36.939c0,2.115 -0.749,2.985 -2.624,2.985l-0.125,0l-0,2.861l21.372,-0l0,-2.861l-0.5,0c-5.749,-0.249 -8.874,-1.865 -8.874,-8.955l0,-32.71c0,-8.209 -3.874,-12.935 -9.873,-12.935c-11.999,-0 -23.248,16.666 -25.497,20.273l-0.25,-0l-0,-41.79c-0,-2.363 1.499,-3.855 2.499,-4.229l0,-2.487l-20.997,8.333Z" style="fill:#797979;fill-rule:nonzero;"/><path d="M1064.57,884.823c-0,14.552 10.748,26.492 22.872,26.492c11.124,0 21.122,-9.452 26.497,-17.039l-0,-3.98c-6.125,6.965 -12.999,12.562 -21.373,12.562c-9.499,-0 -19.872,-8.333 -19.872,-25.621c-0,-0.995 0.125,-1.99 0.125,-2.985l39.245,-0c-0.5,-13.557 -8.249,-21.89 -19.873,-21.89c-15.498,-0 -27.621,16.044 -27.621,32.461Zm23.872,-28.73c6.999,-0 12.373,5.099 13.623,15.298l-28.746,-0c1.749,-9.95 8.749,-15.298 15.123,-15.298Z" style="fill:#797979;fill-rule:nonzero;"/><path d="M1119.56,858.705l0,2.985c2.75,-0.995 4.375,-1.368 5.499,-1.368c2.875,-0 3.875,2.363 3.875,4.975l-0,32.337c-0,6.343 -2.75,9.079 -8.624,9.079l-0.75,0l0,2.861l31.746,-0l0,-2.861l-1,0c-8.374,0 -12.748,-1.368 -12.748,-12.313c-0,-18.034 7.999,-33.456 16.123,-33.456c5.874,-0 6.499,7.089 6.499,11.069l4.25,-0l-0,-18.781c-2.5,-0.622 -3.375,-0.87 -4.75,-0.87c-9.124,-0 -15.748,10.198 -21.122,19.651l-0.25,-0l-0,-19.776l-2.625,0l-16.123,6.468Z" style="fill:#797979;fill-rule:nonzero;"/><path d="M1170.38,884.823c0,14.552 10.749,26.492 22.872,26.492c11.124,0 21.123,-9.452 26.497,-17.039l0,-3.98c-6.124,6.965 -12.998,12.562 -21.372,12.562c-9.499,-0 -19.873,-8.333 -19.873,-25.621c0,-0.995 0.125,-1.99 0.125,-2.985l39.246,-0c-0.5,-13.557 -8.249,-21.89 -19.873,-21.89c-15.498,-0 -27.622,16.044 -27.622,32.461Zm23.872,-28.73c7,-0 12.374,5.099 13.624,15.298l-28.747,-0c1.75,-9.95 8.749,-15.298 15.123,-15.298Z" style="fill:#797979;fill-rule:nonzero;"/><path d="M1260.75,831.964l0,2.861c6.125,-0 9.249,1.368 9.249,9.328l0,53.357c0,7.959 -3.749,9.079 -8.874,9.079l-0.375,-0l0,2.985l44.37,-0c2,-0 2.375,1.368 2.375,2.612l-0,0.248l2.875,0l5.249,-25.123l-4.375,-0c-2.749,14.8 -12.248,19.402 -21.622,19.402l-8.249,0l-0,-62.809c-0,-7.96 3.375,-9.079 9.374,-9.079l-0,-2.861l-29.997,0Z" style="fill:#797979;fill-rule:nonzero;"/><path d="M1318.24,884.823c-0,14.552 10.748,26.492 22.872,26.492c11.124,0 21.122,-9.452 26.497,-17.039l-0,-3.98c-6.125,6.965 -12.999,12.562 -21.373,12.562c-9.499,-0 -19.872,-8.333 -19.872,-25.621c-0,-0.995 0.125,-1.99 0.125,-2.985l39.245,-0c-0.5,-13.557 -8.249,-21.89 -19.873,-21.89c-15.498,-0 -27.621,16.044 -27.621,32.461Zm23.872,-28.73c6.999,-0 12.373,5.099 13.623,15.298l-28.746,-0c1.749,-9.95 8.748,-15.298 15.123,-15.298Z" style="fill:#797979;fill-rule:nonzero;"/><path d="M1379.61,861.441l0,14.676l4.125,0c1.5,-15.298 11.123,-20.397 16.248,-20.397c5.374,-0 7.624,4.104 7.624,7.462l-0,7.463c-15.623,7.089 -33.996,17.288 -33.996,28.481c-0,6.219 4.749,12.189 11.124,12.189c8.374,0 15.998,-8.209 22.872,-14.8l-0,9.701c-0,3.482 1.75,5.099 5.249,5.099c5.25,0 10.499,-4.726 15.123,-8.955l0,-3.855c-2.499,1.99 -6.124,5.596 -8.748,5.596c-1.5,0 -2.375,-0.622 -2.375,-3.606l-0,-38.183c-0,-7.09 -3.375,-10.075 -10.874,-10.075c-10.624,0 -19.623,4.851 -26.372,9.204Zm11.874,41.914c-5,0 -8.624,-3.109 -8.624,-8.209c-0,-7.96 9.999,-16.417 25.372,-19.526c-0.25,22.263 -10.999,27.735 -16.748,27.735Z" style="fill:#797979;fill-rule:nonzero;"/><path d="M1431.85,858.705l-0,2.985c2.75,-0.995 4.374,-1.368 5.499,-1.368c2.875,-0 3.875,2.363 3.875,4.975l-0,32.337c-0,6.343 -2.75,9.079 -8.624,9.079l-0.75,0l-0,2.861l31.746,-0l0,-2.861l-1,0c-8.374,0 -12.748,-1.368 -12.748,-12.313c-0,-18.034 7.999,-33.456 16.123,-33.456c5.874,-0 6.499,7.089 6.499,11.069l4.25,-0l-0,-18.781c-2.5,-0.622 -3.375,-0.87 -4.75,-0.87c-9.124,-0 -15.748,10.198 -21.122,19.651l-0.25,-0l-0,-19.776l-2.625,0l-16.123,6.468Z" style="fill:#797979;fill-rule:nonzero;"/><path d="M1482.92,858.705l0,2.985c3,-1.12 4,-1.493 5.25,-1.493c2.749,0 3.999,1.368 3.999,5.348l0,31.965c0,5.969 -2.75,9.203 -8.499,9.203l-0.75,0l0,2.861l27.747,-0l-0,-2.861l-1,0c-5.874,0 -8.999,-2.114 -8.999,-11.815c0,-19.9 11.124,-35.571 20.998,-35.571c4.374,-0 5.999,3.98 5.999,6.716l-0,37.934c-0,1.492 -0.875,2.736 -2.5,2.736l-0.125,0l0,2.861l21.248,-0l-0,-2.861l-0.625,0c-6,0 -8.749,-2.363 -8.749,-8.955l-0,-32.586c-0,-6.716 -2.75,-12.81 -10.374,-12.81c-9.374,-0 -16.998,9.452 -24.872,19.775l-0.25,0l-0,-20.024l-2.625,-0l-15.873,6.592Z" style="fill:#797979;fill-rule:nonzero;"/><path d="M1560.54,832.835c-0,3.234 2.625,5.721 5.874,5.721c3.25,0 5.874,-2.612 5.874,-5.721c0,-2.985 -2.374,-5.846 -5.999,-5.846c-2.874,0 -5.749,2.363 -5.749,5.846Zm-8.124,25.497l-0,3.109c1.75,-0.622 3.249,-1.244 4.999,-1.244c3.625,0 4.375,2.239 4.375,3.607l-0,33.83c-0,6.467 -3,9.079 -8.624,9.079l-0.75,0l-0,2.861l27.997,-0l-0,-2.861l-0.75,0c-5.75,0 -8.624,-2.736 -8.624,-9.079l-0,-45.397l-3,0l-15.623,6.095Z" style="fill:#797979;fill-rule:nonzero;"/><path d="M1585.79,858.705l-0,2.985c3,-1.12 3.999,-1.493 5.249,-1.493c2.75,0 4,1.368 4,5.348l-0,31.965c-0,5.969 -2.75,9.203 -8.499,9.203l-0.75,0l-0,2.861l27.747,-0l-0,-2.861l-1,0c-5.875,0 -8.999,-2.114 -8.999,-11.815c-0,-19.9 11.123,-35.571 20.997,-35.571c4.375,-0 6,3.98 6,6.716l-0,37.934c-0,1.492 -0.875,2.736 -2.5,2.736l-0.125,0l-0,2.861l21.247,-0l0,-2.861l-0.625,0c-5.999,0 -8.749,-2.363 -8.749,-8.955l0,-32.586c0,-6.716 -2.749,-12.81 -10.373,-12.81c-9.374,-0 -16.998,9.452 -24.872,19.775l-0.25,0l-0,-20.024l-2.625,-0l-15.873,6.592Z" style="fill:#797979;fill-rule:nonzero;"/><path d="M1654.78,874.252c-0,8.208 7.124,14.427 17.373,14.427c3.249,-0 5.499,-0.373 8.499,-0.995l0.25,0.249c-5.5,4.104 -8.249,6.716 -8.249,10.323c-0,3.109 1.999,4.975 4.374,6.84c-22.247,4.602 -29.871,11.692 -29.871,18.408c-0,9.079 12.248,13.805 25.247,13.805c18.497,0 38.245,-8.955 38.245,-21.89c0,-5.845 -3.749,-9.328 -18.623,-14.303c-8.874,-2.985 -11.248,-4.726 -11.248,-7.338c-0,-2.238 2.749,-4.85 6.874,-8.333c4.999,-4.353 11.623,-10.198 11.623,-18.034c0,-2.488 -0.499,-3.856 -1.374,-5.846l12.373,0l0,-2.86l-4.749,-0c-4.5,-0 -9.624,-2.239 -11.624,-2.985c-7.624,-3.234 -10.749,-3.358 -12.623,-3.358c-13.499,-0 -26.497,10.696 -26.497,21.89Zm22.622,-18.159c7.874,-0 12.374,6.841 12.374,14.552c-0,8.457 -5.375,14.925 -12.749,14.925c-7.749,-0 -12.498,-6.841 -12.498,-14.801c-0,-6.592 3.749,-14.676 12.873,-14.676Zm3.5,50.496l8.249,3.109c10.998,4.105 12.873,5.597 12.873,9.204c0,5.472 -6.374,14.676 -25.622,14.676c-17.873,0 -20.622,-8.209 -20.622,-11.069c-0,-9.453 17.373,-13.93 25.122,-15.92Z" style="fill:#797979;fill-rule:nonzero;"/><path d="M1749.77,831.964l0,2.985l0.75,0c5.125,0.249 8.499,1.12 8.499,9.08l0,53.356c0,8.084 -3.499,9.079 -8.749,9.079l-0.5,0l0,3.11l29.122,-0c16.623,-0 30.746,-13.433 30.746,-27.362c0,-12.687 -11.248,-13.806 -19.997,-13.806l-0.875,-0l-0,-0.249c9.374,-5.472 17.373,-13.059 17.373,-22.512c-0,-11.442 -8.749,-13.681 -18.248,-13.681l-38.121,0Zm30.122,2.737c12.123,-0 15.248,12.934 15.248,19.029c0,7.711 -4.749,12.188 -12.623,12.188l-12.124,0l-0,-28.232c2.125,-1.866 5.999,-2.985 9.499,-2.985Zm-9.499,34.078l6.749,0c12.374,0 20.873,8.458 20.873,20.895c-0,9.701 -5.625,15.92 -14.499,15.92c-5.249,-0 -9.498,-1.99 -13.123,-4.851l-0,-31.964Z" style="fill:#797979;fill-rule:nonzero;"/><path d="M1816.89,884.823c0,14.552 10.749,26.492 22.873,26.492c11.123,0 21.122,-9.452 26.497,-17.039l-0,-3.98c-6.125,6.965 -12.999,12.562 -21.373,12.562c-9.499,-0 -19.873,-8.333 -19.873,-25.621c0,-0.995 0.125,-1.99 0.125,-2.985l39.246,-0c-0.5,-13.557 -8.249,-21.89 -19.873,-21.89c-15.498,-0 -27.622,16.044 -27.622,32.461Zm23.873,-28.73c6.999,-0 12.373,5.099 13.623,15.298l-28.747,-0c1.75,-9.95 8.749,-15.298 15.124,-15.298Z" style="fill:#797979;fill-rule:nonzero;"/><path d="M1871.88,874.252c0,8.208 7.124,14.427 17.373,14.427c3.25,-0 5.499,-0.373 8.499,-0.995l0.25,0.249c-5.499,4.104 -8.249,6.716 -8.249,10.323c-0,3.109 2,4.975 4.374,6.84c-22.247,4.602 -29.871,11.692 -29.871,18.408c-0,9.079 12.248,13.805 25.247,13.805c18.498,0 38.245,-8.955 38.245,-21.89c0,-5.845 -3.749,-9.328 -18.622,-14.303c-8.874,-2.985 -11.249,-4.726 -11.249,-7.338c-0,-2.238 2.75,-4.85 6.874,-8.333c5,-4.353 11.624,-10.198 11.624,-18.034c-0,-2.488 -0.5,-3.856 -1.375,-5.846l12.373,0l0,-2.86l-4.749,-0c-4.499,-0 -9.624,-2.239 -11.624,-2.985c-7.624,-3.234 -10.748,-3.358 -12.623,-3.358c-13.499,-0 -26.497,10.696 -26.497,21.89Zm22.622,-18.159c7.874,-0 12.374,6.841 12.374,14.552c-0,8.457 -5.375,14.925 -12.749,14.925c-7.749,-0 -12.498,-6.841 -12.498,-14.801c-0,-6.592 3.749,-14.676 12.873,-14.676Zm3.5,50.496l8.249,3.109c10.999,4.105 12.873,5.597 12.873,9.204c0,5.472 -6.374,14.676 -25.622,14.676c-17.872,0 -20.622,-8.209 -20.622,-11.069c-0,-9.453 17.373,-13.93 25.122,-15.92Z" style="fill:#797979;fill-rule:nonzero;"/><path d="M1940.62,832.835c-0,3.234 2.625,5.721 5.874,5.721c3.25,0 5.874,-2.612 5.874,-5.721c0,-2.985 -2.374,-5.846 -5.999,-5.846c-2.875,0 -5.749,2.363 -5.749,5.846Zm-8.124,25.497l-0,3.109c1.75,-0.622 3.249,-1.244 4.999,-1.244c3.625,0 4.375,2.239 4.375,3.607l-0,33.83c-0,6.467 -3,9.079 -8.624,9.079l-0.75,0l-0,2.861l27.996,-0l0,-2.861l-0.749,0c-5.75,0 -8.624,-2.736 -8.624,-9.079l-0,-45.397l-3,0l-15.623,6.095Z" style="fill:#797979;fill-rule:nonzero;"/><path d="M1965.87,858.705l-0,2.985c2.999,-1.12 3.999,-1.493 5.249,-1.493c2.75,0 4,1.368 4,5.348l-0,31.965c-0,5.969 -2.75,9.203 -8.499,9.203l-0.75,0l-0,2.861l27.746,-0l0,-2.861l-0.999,0c-5.875,0 -8.999,-2.114 -8.999,-11.815c-0,-19.9 11.123,-35.571 20.997,-35.571c4.375,-0 5.999,3.98 5.999,6.716l0,37.934c0,1.492 -0.874,2.736 -2.499,2.736l-0.125,0l-0,2.861l21.247,-0l0,-2.861l-0.625,0c-5.999,0 -8.749,-2.363 -8.749,-8.955l0,-32.586c0,-6.716 -2.749,-12.81 -10.373,-12.81c-9.374,-0 -16.998,9.452 -24.872,19.775l-0.25,0l-0,-20.024l-2.625,-0l-15.873,6.592Z" style="fill:#797979;fill-rule:nonzero;"/><path d="M2038.61,867.411c0,6.716 4.5,9.452 13.249,14.925c9.748,6.094 13.998,8.582 13.998,15.174c-0,5.721 -4.375,10.074 -10.624,10.074c-5.374,-0 -13.123,-3.358 -14.373,-16.791l-4.125,0l0,16.915c4.125,1.741 9.249,3.607 14.999,3.607c11.623,0 22.372,-8.457 22.372,-18.78c-0,-6.717 -4.375,-9.826 -13.124,-15.298l-6.374,-3.98c-5.374,-3.359 -7.999,-6.344 -7.999,-10.323c0,-3.607 2.5,-7.214 7.249,-7.214c4.125,-0 11.874,3.109 12.249,14.925l4.374,-0l0,-15.92c-4.374,-1.741 -7.749,-2.488 -11.873,-2.488c-12.999,0 -19.998,8.085 -19.998,15.174Z" style="fill:#797979;fill-rule:nonzero;"/></svg>